<?xml version="1.0" encoding="utf-8"?>
<!-- Generator: Adobe Illustrator 24.1.2, SVG Export Plug-In . SVG Version: 6.00 Build 0)  -->
<svg version="1.1" id="Capa_1" xmlns="http://www.w3.org/2000/svg" xmlns:xlink="http://www.w3.org/1999/xlink" x="0px" y="0px"
	 viewBox="0 0 162.7 132" style="enable-background:new 0 0 162.7 132;" xml:space="preserve">
<style type="text/css">
	.st0{clip-path:url(#SVGID_2_);fill:#9AC331;}
	.st1{clip-path:url(#SVGID_2_);fill:#FFFFFF;}
	.st2{clip-path:url(#SVGID_2_);fill:#1D1D1B;}
	.st3{clip-path:url(#SVGID_2_);fill:#14133B;}
	.st4{clip-path:url(#SVGID_4_);fill:#FFFFFF;}
	.st5{clip-path:url(#SVGID_4_);fill:#9AC331;}
	.st6{clip-path:url(#SVGID_6_);fill:#14133B;}
	.st7{clip-path:url(#SVGID_6_);fill:#FFFFFF;}
	.st8{clip-path:url(#SVGID_6_);fill:#1D1D1B;}
	.st9{clip-path:url(#SVGID_6_);fill:#9C9C9B;}
	.st10{clip-path:url(#SVGID_6_);fill:#4BB7E9;}
	.st11{clip-path:url(#SVGID_6_);fill:#3D2D61;}
	.st12{clip-path:url(#SVGID_6_);fill:#79C4B8;}
	.st13{clip-path:url(#SVGID_6_);fill:#F6DA00;}
	.st14{clip-path:url(#SVGID_6_);fill:#1CA18E;}
	.st15{fill:#4A4A49;}
	.st16{fill-rule:evenodd;clip-rule:evenodd;fill:#E7EFF2;}
	.st17{fill-rule:evenodd;clip-rule:evenodd;fill:#20A3DD;}
	.st18{fill-rule:evenodd;clip-rule:evenodd;fill:#E5EECC;}
	.st19{fill:#2A2221;}
	.st20{fill-rule:evenodd;clip-rule:evenodd;fill:#F9D1A2;}
	.st21{fill:#FFFFFF;}
	.st22{fill-rule:evenodd;clip-rule:evenodd;fill:#FFFFFF;}
	.st23{fill-rule:evenodd;clip-rule:evenodd;fill:#FFEC7E;}
	.st24{fill:#181612;}
	.st25{fill-rule:evenodd;clip-rule:evenodd;fill:#2A2221;}
</style>
<g>
	<g>
		<defs>
			<rect id="SVGID_1_" x="1.3" y="1.6" width="160.2" height="128.4"/>
		</defs>
		<clipPath id="SVGID_2_">
			<use xlink:href="#SVGID_1_"  style="overflow:visible;"/>
		</clipPath>
		<path class="st0" d="M129.3,65.6c0,35.3-28.7,64-64,64s-64-28.7-64-64s28.7-64,64-64S129.3,30.3,129.3,65.6"/>
		<rect x="76.2" y="87.4" class="st1" width="42.7" height="42.7"/>
		<polygon class="st2" points="76.2,130.1 76.2,130.3 119.1,130.3 119.1,87.2 75.9,87.2 75.9,130.3 76.2,130.3 76.2,130.1 
			76.4,130.1 76.4,87.7 118.6,87.7 118.6,129.8 76.2,129.8 76.2,130.1 76.4,130.1 		"/>
		<rect x="33.5" y="87.4" class="st3" width="42.7" height="42.7"/>
	</g>
	<g>
		<defs>
			<rect id="SVGID_3_" x="33.5" y="87.4" width="42.7" height="42.7"/>
		</defs>
		<clipPath id="SVGID_4_">
			<use xlink:href="#SVGID_3_"  style="overflow:visible;"/>
		</clipPath>
		<path class="st4" d="M39.7,101c0.2,0,0.6,0,0.8,0c0.3,0,0.6,0,0.8,0v0.2h-0.1c-0.2,0-0.3,0-0.3,0.2c0,0.1,0,0.2,0.1,0.3l1,2.7h0
			l1.1-3.5h0.2l1.2,3.5h0l0.8-2.4c0-0.1,0.1-0.4,0.1-0.5c0-0.2-0.1-0.2-0.3-0.2h-0.1V101c0.2,0,0.5,0,0.7,0c0.2,0,0.5,0,0.7,0v0.2
			h-0.1c-0.3,0-0.4,0.1-0.5,0.4l-1.3,3.7h-0.2l-1.2-3.5h0l-1.1,3.5h-0.2l-1.4-3.7c-0.1-0.3-0.3-0.4-0.6-0.4h-0.1V101z"/>
		<path class="st4" d="M48.6,101c1.3,0,2.4,1,2.4,2.2c0,1.1-0.9,2.2-2.5,2.2c-1.4,0-2.4-1-2.4-2.2C46.1,101.9,47.3,101,48.6,101
			 M48.5,101.2c-0.9,0-1.8,0.5-1.8,1.9c0,1,0.7,2,1.8,2c1.2,0,1.8-0.8,1.8-1.9C50.3,102.3,49.7,101.2,48.5,101.2"/>
		<path class="st4" d="M51.1,105.1h0.1c0.3,0,0.4-0.1,0.4-0.5v-2.9c0-0.4-0.1-0.5-0.4-0.5h-0.1V101c0.2,0,0.5,0,0.8,0
			c0.4,0,0.7,0,1,0c1.2,0,1.4,0.8,1.4,1.1c0,0.8-0.6,1-0.9,1.1l0.9,1.3c0.4,0.5,0.5,0.6,1,0.6v0.1c-0.1,0-0.2,0-0.4,0
			c-0.6,0-0.8-0.1-1.2-0.6l-0.8-1.1c-0.1-0.2-0.2-0.2-0.7-0.2v1.1c0,0.6,0.1,0.6,0.4,0.6h0.2v0.2c-0.3,0-0.6,0-0.8,0
			c-0.3,0-0.6,0-0.8,0V105.1z M52.2,103.1c0.1,0,0.3,0,0.4,0c0.6,0,1.1-0.2,1.1-0.9c0-0.3-0.2-1-1.1-1c-0.2,0-0.3,0-0.4,0V103.1z"/>
		<path class="st4" d="M55.5,105.1h0.1c0.3,0,0.4-0.1,0.4-0.5v-2.9c0-0.4-0.1-0.5-0.4-0.5h-0.1V101c0.2,0,0.5,0,0.8,0
			c0.3,0,0.6,0,0.9,0v0.2h-0.2c-0.3,0-0.4,0.1-0.4,0.5v2.8c0,0.4,0.1,0.6,0.9,0.6c1.1,0,1.2-0.2,1.3-0.9h0.2l0,1.1
			c-0.6,0-1.3,0-1.9,0c-0.8,0-1.4,0-1.6,0V105.1z"/>
		<path class="st4" d="M59.3,105.1h0.1c0.3,0,0.4-0.1,0.4-0.5v-2.9c0-0.4-0.1-0.5-0.4-0.5h-0.1V101c0.2,0,0.5,0,0.8,0
			c0.5,0,1.1,0,1.6,0c1.8,0,2.4,1.3,2.4,2.1c0,0.9-0.6,2.2-2.6,2.2c-0.4,0-0.9,0-1.3,0c-0.3,0-0.6,0-0.8,0V105.1z M60.4,104.5
			c0,0.5,0.2,0.5,1,0.5c1.1,0,2.1-0.5,2.1-1.8c0-0.9-0.6-2-2.2-2c-0.3,0-0.5,0-0.8,0V104.5z"/>
		<path class="st4" d="M41,110.6h0.1c0.4,0,0.4-0.1,0.4-0.6v-3.3h-0.7c-0.7,0-0.8,0.4-0.8,0.8h-0.2v-1.1c0.2,0,1.2,0,2.1,0
			c0.8,0,1.9,0,2.1,0v1.1h-0.2c0-0.5-0.1-0.8-0.8-0.8h-0.7v3.3c0,0.5,0.1,0.6,0.4,0.6h0.1v0.2c-0.2,0-0.5,0-0.9,0
			c-0.3,0-0.6,0-0.9,0V110.6z"/>
		<path class="st4" d="M44.3,110.6h0.1c0.3,0,0.4-0.1,0.4-0.5v-2.9c0-0.4-0.1-0.5-0.4-0.5h-0.1v-0.2c0.2,0,0.5,0,0.8,0
			c0.4,0,0.8,0,1,0c1.2,0,1.4,0.8,1.4,1.1c0,0.8-0.6,1-0.9,1.1l0.9,1.3c0.4,0.5,0.5,0.5,1,0.5v0.1c-0.1,0-0.3,0-0.4,0.1
			c-0.5,0-0.8,0-1.1-0.6l-0.8-1.1c-0.2-0.2-0.2-0.2-0.7-0.2v1.1c0,0.6,0.1,0.6,0.4,0.6H46v0.2c-0.3,0-0.6,0-0.8,0
			c-0.3,0-0.6,0-0.8,0V110.6z M45.4,108.5c0.1,0,0.3,0,0.4,0c0.6,0,1.1-0.2,1.1-0.9c0-0.3-0.2-1-1.1-1c-0.2,0-0.3,0-0.4,0V108.5z"/>
		<path class="st4" d="M48,110.6L48,110.6c0.4,0,0.6-0.1,0.8-0.6l1.5-3.6h0.1l1.7,3.7c0.2,0.3,0.4,0.6,0.7,0.6h0.1v0.2
			c-0.2,0-0.5,0-0.9,0c-0.3,0-0.7,0-0.9,0v-0.2h0.2c0.2,0,0.3-0.1,0.3-0.2l-0.1-0.3l-0.5-1.1h-1.5l-0.3,0.9c0,0.1-0.1,0.3-0.1,0.4
			c0,0.1,0.1,0.2,0.3,0.2h0.1v0.2c-0.2,0-0.5,0-0.8,0c-0.2,0-0.5,0-0.6,0V110.6z M50.2,107.1l-0.6,1.6H51L50.2,107.1z"/>
		<path class="st4" d="M51.6,106.5c0.3,0,0.6,0,0.9,0c0.3,0,0.6,0,0.9,0v0.2h-0.1c-0.3,0-0.4,0.1-0.4,0.2c0,0.1,0,0.2,0.1,0.4
			l1.2,2.7l1.3-2.8c0.1-0.2,0.1-0.3,0.1-0.5s-0.1-0.2-0.3-0.2h-0.1v-0.2c0.2,0,0.5,0,0.7,0c0.2,0,0.5,0,0.7,0v0.2h-0.1
			c-0.2,0-0.4,0.1-0.6,0.6l-1.7,3.6h-0.2l-1.7-3.7c-0.2-0.4-0.3-0.5-0.6-0.5h-0.1V106.5z"/>
		<path class="st4" d="M56.8,110.6h0.1c0.3,0,0.4-0.1,0.4-0.5v-2.9c0-0.4-0.1-0.5-0.4-0.5h-0.1v-0.2c0.2,0,1,0,1.6,0
			c0.8,0,1.1,0,1.5,0c0,0.4,0,0.7,0.1,1h-0.2c-0.1-0.4-0.1-0.8-1.3-0.8h-0.6v1.7h0.6c0.8,0,0.8-0.1,0.8-0.5h0.2c0,0.1,0,0.3,0,0.6
			c0,0.2,0,0.4,0,0.5h-0.2c0-0.3,0-0.4-0.8-0.4h-0.6v1.4c0,0.4,0.1,0.4,0.6,0.4h0.2c1.1,0,1.4-0.2,1.5-0.9h0.2
			c0,0.4-0.1,0.7-0.1,1.1c-0.4,0-1.1,0-1.8,0c-0.8,0-1.4,0-1.6,0V110.6z"/>
		<path class="st4" d="M60.6,110.6h0.1c0.3,0,0.4-0.1,0.4-0.5v-2.9c0-0.4-0.1-0.5-0.4-0.5h-0.1v-0.2c0.2,0,0.5,0,0.8,0
			c0.3,0,0.6,0,0.9,0v0.2h-0.1c-0.3,0-0.4,0.1-0.4,0.5v2.8c0,0.4,0.1,0.6,0.9,0.6c1.1,0,1.2-0.2,1.3-0.9h0.2l0,1.1
			c-0.6,0-1.3,0-1.9,0c-0.8,0-1.4,0-1.6,0V110.6z"/>
		<path class="st4" d="M67.9,108.5c0.2,0,0.3,0,0.6,0c0.4,0,0.6,0,0.8,0v0.2c-0.5,0-0.5,0.1-0.6,0.5c0,0.1-0.1,0.5-0.2,0.8
			c0.5,0.6,0.7,0.6,1.2,0.6v0.2c-0.1,0-0.3,0-0.5,0c-0.3,0-0.5,0-0.7,0l-0.4-0.4c-0.2,0.2-0.6,0.5-1.4,0.5c-0.8,0-1.4-0.5-1.4-1.1
			c0-0.5,0.3-0.8,1-1.2c-0.3-0.3-0.6-0.6-0.6-1c0-0.7,0.6-1.1,1.2-1.1c0.5,0,1,0.3,1,0.9c0,0.5-0.4,0.7-1.1,1.1l1.4,1.4
			c0.1-0.2,0.1-0.5,0.1-0.7c0-0.4-0.2-0.4-0.6-0.4V108.5z M66.5,108.7c-0.4,0.3-0.6,0.6-0.6,0.9c0,0.5,0.4,1,1.2,1
			c0.4,0,0.8-0.2,0.9-0.4L66.5,108.7z M66.8,106.6c-0.3,0-0.7,0.3-0.6,0.7c0,0.3,0.6,0.9,0.7,0.9c0.4-0.3,0.7-0.5,0.7-0.9
			C67.5,107.1,67.3,106.6,66.8,106.6"/>
		<path class="st4" d="M41,116h0.1c0.4,0,0.4-0.1,0.4-0.6v-3.3h-0.7c-0.7,0-0.8,0.4-0.8,0.8h-0.2v-1.1c0.2,0,1.2,0,2.1,0
			c0.8,0,1.9,0,2.1,0v1.1h-0.2c0-0.5-0.1-0.8-0.8-0.8h-0.7v3.3c0,0.5,0.1,0.6,0.4,0.6h0.1v0.2c-0.2,0-0.5,0-0.9,0
			c-0.3,0-0.6,0-0.9,0V116z"/>
		<path class="st4" d="M46.5,111.9c1.3,0,2.4,1,2.4,2.2c0,1.1-0.9,2.2-2.5,2.2c-1.4,0-2.4-1-2.4-2.2C44,112.8,45.2,111.9,46.5,111.9
			 M46.4,112.1c-0.9,0-1.8,0.5-1.8,1.9c0,1,0.7,2,1.8,2c1.2,0,1.8-0.8,1.8-1.9C48.2,113.2,47.6,112.1,46.4,112.1"/>
		<path class="st4" d="M50.6,112.1h-0.1c-0.2,0-0.4,0.1-0.4,0.6c0,0.6,0,1.3,0,1.9c0,0.5,0.1,0.7,0.3,1c0.2,0.3,0.5,0.5,1.1,0.5
			c0.6,0,1.1-0.3,1.2-0.5c0.2-0.3,0.3-0.6,0.3-1.1v-0.6c0-0.8-0.1-1.4-0.1-1.6c-0.1-0.1-0.1-0.2-0.3-0.2h-0.1v-0.2
			c0.2,0,0.4,0,0.7,0c0.2,0,0.5,0,0.7,0v0.2h-0.1c-0.2,0-0.4,0.1-0.4,0.7v1.5c0,0.6-0.2,1.1-0.5,1.5c-0.3,0.3-0.8,0.5-1.4,0.5
			c-0.5,0-0.9-0.1-1.3-0.4c-0.4-0.3-0.6-0.8-0.6-1.4v-1.9c0-0.4-0.2-0.5-0.4-0.5h-0.1v-0.2c0.3,0,0.5,0,0.8,0c0.3,0,0.6,0,0.8,0
			V112.1z"/>
		<path class="st4" d="M54.1,116h0.1c0.3,0,0.4-0.1,0.4-0.5v-2.9c0-0.4-0.1-0.5-0.4-0.5h-0.1v-0.2c0.2,0,0.5,0,0.8,0
			c0.4,0,0.7,0,1,0c1.2,0,1.4,0.8,1.4,1.1c0,0.8-0.6,1-0.9,1.1l0.9,1.3c0.4,0.5,0.5,0.6,1,0.6v0.1c-0.1,0-0.2,0-0.4,0
			c-0.6,0-0.8-0.1-1.2-0.6l-0.8-1.1c-0.1-0.2-0.2-0.2-0.7-0.2v1.1c0,0.6,0.1,0.6,0.4,0.6h0.2v0.2c-0.3,0-0.6,0-0.8,0
			c-0.3,0-0.6,0-0.8,0V116z M55.2,114c0.1,0,0.3,0,0.4,0c0.6,0,1.1-0.2,1.1-0.9c0-0.3-0.2-1-1.1-1c-0.2,0-0.3,0-0.4,0V114z"/>
		<path class="st4" d="M58.4,116h0.1c0.3,0,0.4-0.1,0.4-0.5v-2.9c0-0.4-0.1-0.5-0.4-0.5h-0.1v-0.2c0.2,0,0.5,0,0.8,0
			c0.3,0,0.6,0,0.8,0v0.2H60c-0.3,0-0.4,0.1-0.4,0.5v2.9c0,0.4,0.1,0.5,0.4,0.5h0.1v0.2c-0.3,0-0.5,0-0.8,0c-0.3,0-0.6,0-0.8,0V116z
			"/>
		<path class="st4" d="M63.3,113h-0.2c0-0.2-0.1-0.9-1-0.9c-0.5,0-0.9,0.3-0.9,0.7c0,0.3,0.2,0.6,0.7,0.8l0.6,0.3
			c0.5,0.2,1,0.5,1,1.1c0,0.7-0.5,1.3-1.6,1.3c-0.1,0-0.7,0-1.2-0.1l0-1h0.2c0.1,0.5,0.6,0.9,1.1,0.9c0.6,0,1-0.3,1-0.8
			c0-0.5-0.5-0.7-0.8-0.9l-0.7-0.3c-0.5-0.2-0.8-0.5-0.8-1c0-0.6,0.6-1.2,1.5-1.2c0.4,0,0.8,0.1,1.2,0.2V113z"/>
		<path class="st4" d="M63.9,116H64c0.3,0,0.4-0.1,0.4-0.9c0-0.8,0.1-1.7,0.1-2.5c0-0.4-0.1-0.5-0.5-0.5H64v-0.2c0.2,0,0.4,0,0.6,0
			c0.2,0,0.4,0,0.5,0l1.8,3.5l1.6-3.5c0.2,0,0.4,0,0.6,0c0.2,0,0.4,0,0.6,0v0.2h-0.1c-0.3,0-0.5,0.1-0.5,0.5c0,0.3,0,1.8,0,2.7
			c0,0.6,0.1,0.7,0.5,0.7h0.1v0.2c-0.2,0-0.5,0-0.8,0c-0.3,0-0.6,0-0.8,0V116h0.1c0.4,0,0.4-0.1,0.4-0.6v-3h0l-1.7,3.9h-0.1
			l-1.8-3.5h0v2.4c0,0.6,0.1,0.8,0.4,0.8h0.1v0.2c-0.2,0-0.4,0-0.7,0c-0.3,0-0.5,0-0.7,0V116z"/>
		<path class="st4" d="M44.3,118.5h-0.1c-0.2-0.3-0.5-0.9-1.7-0.9c-1.3,0-1.7,1.1-1.7,2c0,1.4,1.1,1.9,1.8,1.9c1,0,1.5-0.5,1.8-0.9
			h0v0.5c-0.2,0.2-0.8,0.7-1.8,0.7c-1.5,0-2.5-0.9-2.5-2.1c0-1.2,0.9-2.4,2.4-2.4c0.6,0,1.3,0.2,1.5,0.3c0.1,0,0.2,0.1,0.3,0.1
			L44.3,118.5z"/>
		<path class="st4" d="M47.1,117.3c1.3,0,2.4,1,2.4,2.2c0,1.1-0.9,2.2-2.5,2.2c-1.4,0-2.4-1-2.4-2.2
			C44.7,118.2,45.8,117.3,47.1,117.3 M47.1,117.6c-0.9,0-1.8,0.5-1.8,1.9c0,1,0.7,2,1.8,2c1.2,0,1.8-0.8,1.8-1.9
			C48.9,118.6,48.2,117.6,47.1,117.6"/>
		<path class="st4" d="M51.2,117.6h-0.1c-0.2,0-0.4,0.1-0.4,0.6c0,0.6,0,1.3,0,1.9c0,0.5,0.1,0.7,0.3,1c0.2,0.3,0.5,0.5,1.1,0.5
			c0.6,0,1.1-0.3,1.2-0.5c0.2-0.3,0.3-0.6,0.3-1.1v-0.6c0-0.8-0.1-1.4-0.1-1.6c-0.1-0.1-0.1-0.2-0.3-0.2H53v-0.2c0.2,0,0.4,0,0.7,0
			c0.2,0,0.5,0,0.7,0v0.2h-0.1c-0.2,0-0.4,0.1-0.4,0.7v1.5c0,0.6-0.2,1.1-0.5,1.5c-0.3,0.3-0.8,0.5-1.4,0.5c-0.5,0-0.9-0.1-1.3-0.4
			c-0.4-0.3-0.6-0.8-0.6-1.4V118c0-0.4-0.2-0.5-0.4-0.5h-0.1v-0.2c0.3,0,0.5,0,0.8,0c0.3,0,0.6,0,0.8,0V117.6z"/>
		<path class="st4" d="M54.6,121.5h0.1c0.3,0,0.4-0.1,0.4-0.8c0-0.8,0-1.9,0-2.6c0-0.4-0.1-0.5-0.5-0.5h-0.2v-0.2c0.2,0,0.4,0,0.6,0
			c0.2,0,0.4,0,0.5,0l3.1,3.5h0l0-2.4c0-0.7-0.1-0.8-0.5-0.8h-0.1v-0.2c0.2,0,0.5,0,0.7,0c0.2,0,0.5,0,0.7,0v0.2h-0.1
			c-0.2,0-0.4,0.1-0.4,0.6l-0.1,3.5h-0.2l-3.2-3.6h0c0,0.9,0,1.8,0,2.8c0,0.5,0.1,0.6,0.4,0.6H56v0.2c-0.2,0-0.5,0-0.7,0
			c-0.2,0-0.5,0-0.7,0V121.5z"/>
		<path class="st4" d="M63.8,118.5h-0.1c-0.2-0.3-0.5-0.9-1.7-0.9c-1.3,0-1.7,1.1-1.7,2c0,1.4,1.1,1.9,1.8,1.9c1,0,1.5-0.5,1.8-0.9
			h0v0.5c-0.2,0.2-0.8,0.7-1.8,0.7c-1.5,0-2.5-0.9-2.5-2.1c0-1.2,0.9-2.4,2.4-2.4c0.6,0,1.3,0.2,1.5,0.3c0.1,0,0.2,0.1,0.3,0.1
			L63.8,118.5z"/>
		<path class="st4" d="M64.2,121.5h0.1c0.3,0,0.4-0.1,0.4-0.5v-2.9c0-0.4-0.1-0.5-0.4-0.5h-0.1v-0.2c0.2,0,0.5,0,0.8,0
			c0.3,0,0.6,0,0.8,0v0.2h-0.1c-0.3,0-0.4,0.1-0.4,0.5v2.9c0,0.4,0.1,0.5,0.4,0.5h0.1v0.2c-0.3,0-0.5,0-0.8,0c-0.3,0-0.6,0-0.8,0
			V121.5z"/>
		<path class="st4" d="M66.4,121.5h0.1c0.3,0,0.4-0.1,0.4-0.5v-2.9c0-0.4-0.1-0.5-0.4-0.5h-0.1v-0.2c0.2,0,0.5,0,0.8,0
			c0.3,0,0.6,0,0.9,0v0.2H68c-0.3,0-0.4,0.1-0.4,0.5v2.8c0,0.4,0.1,0.6,0.9,0.6c1.1,0,1.2-0.2,1.3-0.9H70l0,1.1c-0.6,0-1.3,0-1.9,0
			c-0.8,0-1.4,0-1.6,0V121.5z"/>
		<path class="st4" d="M69.6,98.6c0.1-0.4,0.2-0.7,0.2-1.1c0-0.4-0.1-0.9-0.3-1.2c-0.2-0.6-0.6-1.1-1.2-1.4
			c-0.5-0.3-1.1-0.5-1.8-0.5c-0.4,0-0.8,0.1-1.2,0.2l-0.2,0.1v1c0.2-0.1,0.3-0.2,0.5-0.3c0.3-0.1,0.6-0.2,0.9-0.2
			c0.3,0,0.6,0.1,0.9,0.2c0.4,0.2,0.8,0.5,1,0.8c0.3,0.4,0.4,0.8,0.4,1.3c0,0.3-0.1,0.5-0.1,0.8c-0.1,0.3-0.2,0.5-0.4,0.7l0,0
			l-3.1,4.7v1.6l3.9-5.7C69.4,99.3,69.5,99,69.6,98.6"/>
		<path class="st5" d="M68.5,97.5c0,1-0.8,1.9-1.9,1.9c-1,0-1.9-0.8-1.9-1.9c0-1,0.8-1.9,1.9-1.9C67.7,95.7,68.5,96.5,68.5,97.5"/>
	</g>
	<g>
		<defs>
			<rect id="SVGID_5_" x="1.3" y="1.6" width="160.2" height="128.4"/>
		</defs>
		<clipPath id="SVGID_6_">
			<use xlink:href="#SVGID_5_"  style="overflow:visible;"/>
		</clipPath>
		<path class="st6" d="M28.7,66.6h-4v5.7c0,1.3,0.7,1.9,2.1,1.9c0.6,0,0.9,0,1.3-0.2l-0.4,3.8c-0.5,0.2-1.3,0.4-2.3,0.4
			c-3.5,0-5.6-1.8-5.6-4.9v-6.7h-2.6v-4.1h2.6v-3.3l5-1.8v5.1h5L28.7,66.6z"/>
		<path class="st6" d="M43.3,67.8c-0.3-0.2-1-0.4-1.5-0.4c-1.6,0-3.1,0.9-3.1,3.3V78h-5V62.5h5v3.5h0c0.5-2.4,2.3-3.7,4.4-3.7
			c0.5,0,1.1,0.1,1.4,0.2L43.3,67.8z"/>
		<path class="st6" d="M57.6,78.7c-0.9-0.2-2-0.9-2.4-2.1c-0.7,1.3-2.2,1.9-4,1.9c-2.7,0-5.2-1.9-5.2-5.1c0-2.8,2.2-4.8,5.3-5.1
			l3.1-0.3v-0.5c0-0.9-0.8-1.5-2.4-1.5c-1.5,0-3.2,0.5-4.3,1.2l-0.9-3.8c1.3-0.8,3.4-1.4,5.4-1.4c4.1,0,7,1.9,7,5.6v5.1
			c0,1.8,0.7,2.8,1.9,3.2L57.6,78.7z M54.4,71.2l-1.9,0.2c-1.3,0.1-1.9,1-1.9,2c0,0.8,0.6,1.5,1.6,1.5c1.2,0,2.2-0.9,2.2-2.3V71.2z"
			/>
		<path class="st6" d="M70.2,78.1h-3.8l-6-15.6h4.9l2.2,5.9c0.3,0.8,0.6,2,0.9,3h0.1c0.2-1,0.6-2.2,0.9-3l2.2-5.9h4.7L70.2,78.1z"/>
		<path class="st6" d="M91.8,69.4l-2.2,2.3H82c0.2,1.3,2,2.7,4.6,2.7c1.6,0,3.3-0.5,4.3-1.2l-0.5,4.3c-1.2,0.6-2.9,1-4.9,1
			c-4.7,0-8.5-3.3-8.5-8.3c0-5,3.6-8.2,8.1-8.2c4.3,0,6.9,3,6.9,6.2C92,68.5,91.9,69,91.8,69.4 M85,65.7c-1.5,0-2.7,1.1-3,2.5h5.2
			c0-0.1,0-0.2,0-0.3C87.3,66.9,86.4,65.7,85,65.7"/>
		<path class="st6" d="M100,78.6c-3.2-0.1-5.3-1.8-5.3-5.5V53.6h5v18.9c0,1.3,0.7,2,2.1,2.1L100,78.6z"/>
		<path class="st6" d="M109,78.3c-2.1,0-3.7-0.4-4.9-1.1l-0.4-4.4c1.4,1,3.1,1.7,4.9,1.7c0.9,0,1.5-0.5,1.5-1.1
			c0-0.7-0.5-0.9-1.4-1.2c-3-0.9-4.8-2.4-4.8-5.1c0-3,2.5-5,5.8-5c1.9,0,3.8,0.5,4.6,0.9l-0.9,3.7c-0.8-0.4-2-0.9-3.2-0.9
			c-0.8,0-1.4,0.4-1.4,1c0,0.6,0.4,0.9,1.4,1.1c3.5,0.9,4.9,2.7,4.9,5.3C115.1,75.9,113.2,78.3,109,78.3"/>
		<path class="st6" d="M22.6,90.5c-0.4,0-0.8-0.2-1-0.3v-3.5H22v1.5c0.1-0.1,0.4-0.2,0.7-0.2c0.7,0,1.2,0.5,1.2,1.2
			C23.9,90,23.4,90.5,22.6,90.5 M22.7,88.3c-0.3,0-0.6,0.2-0.6,0.3V90c0.1,0.1,0.3,0.1,0.6,0.1c0.6,0,0.9-0.4,0.9-0.9
			C23.5,88.7,23.1,88.3,22.7,88.3"/>
		<path class="st6" d="M25.4,90.2c-0.4,0.9-0.7,1.2-1.2,1.4L24,91.4c0.4-0.2,0.8-0.5,1-1.1l-0.9-2.2h0.4l0.5,1.2
			c0.1,0.2,0.2,0.4,0.2,0.6h0c0.1-0.2,0.2-0.4,0.2-0.6l0.5-1.2h0.4L25.4,90.2z"/>
		<path class="st6" d="M39.6,52.5c-2.5,0-4.8-0.7-6.1-1.5L33,46c1.8,1.2,4.1,2.1,6.3,2.1c1.9,0,3.1-0.9,3.1-2.2c0-1.3-0.8-2-2.8-2.5
			c-4.3-1.2-6.3-3.5-6.3-6.8c0-3.6,2.7-6.5,7.4-6.5c2.5,0,4.6,0.7,5.5,1.2l-1,4.3c-0.9-0.5-2.6-1.1-4.1-1.1c-1.8,0-2.7,0.8-2.7,1.9
			c0,1.1,0.9,1.7,2.6,2.2c4.2,1.2,6.7,3.3,6.7,7.2C47.7,49.8,44.9,52.5,39.6,52.5"/>
		<path class="st6" d="M61.9,52.9c-0.9-0.2-2-0.9-2.4-2.1c-0.7,1.3-2.2,1.9-4,1.9c-2.7,0-5.2-1.9-5.2-5.1c0-2.8,2.2-4.8,5.3-5.1
			l3.1-0.3v-0.5c0-0.9-0.8-1.5-2.4-1.5c-1.5,0-3.2,0.5-4.3,1.2L51,37.5c1.3-0.8,3.4-1.4,5.4-1.4c4.1,0,7,1.9,7,5.6v5.1
			c0,1.8,0.7,2.8,1.9,3.2L61.9,52.9z M58.7,45.4l-1.9,0.2c-1.3,0.1-1.9,1-1.9,2c0,0.8,0.6,1.5,1.6,1.5c1.2,0,2.2-0.9,2.2-2.3V45.4z"
			/>
		<path class="st6" d="M78.5,32.3c-0.6-0.2-1.4-0.4-2-0.4c-1.8,0-2.8,1.1-2.8,3.3v1.5h4.4l-1,4.1h-3.5v11.4h-4.9V40.8h-2.4v-4.1h2.4
			v-1.8c0-4.7,3-7,6.9-7c1.4,0,2.9,0.2,3.7,0.5L78.5,32.3z"/>
		<path class="st6" d="M93.7,43.6l-2.2,2.3h-7.6c0.2,1.3,2,2.7,4.6,2.7c1.6,0,3.3-0.5,4.3-1.2l-0.5,4.3c-1.2,0.6-2.9,1-4.9,1
			c-4.7,0-8.5-3.3-8.5-8.3c0-5,3.6-8.2,8.1-8.2c4.3,0,6.9,3,6.9,6.2C93.9,42.7,93.8,43.3,93.7,43.6 M86.9,39.9c-1.5,0-2.7,1.1-3,2.5
			h5.2c0-0.1,0-0.2,0-0.3C89.2,41.1,88.3,39.9,86.9,39.9"/>
		<rect x="118.8" y="87.4" class="st7" width="42.7" height="42.7"/>
		<polygon class="st8" points="118.8,130.1 118.8,130.3 161.7,130.3 161.7,87.2 118.6,87.2 118.6,130.3 118.8,130.3 118.8,130.1 
			119.1,130.1 119.1,87.7 161.2,87.7 161.2,129.8 118.8,129.8 118.8,130.1 119.1,130.1 		"/>
		<polygon class="st9" points="84.5,112.8 85.5,112.8 83.7,118.3 82.3,118.3 80.5,112.8 81.5,112.8 83,117.5 		"/>
		<path class="st9" d="M86,113.5c-0.1-0.1-0.2-0.2-0.2-0.4c0-0.2,0.1-0.3,0.2-0.4c0.1-0.1,0.3-0.1,0.5-0.1c0.2,0,0.4,0,0.5,0.1
			c0.1,0.1,0.2,0.2,0.2,0.4c0,0.2-0.1,0.3-0.2,0.4s-0.3,0.1-0.5,0.1C86.3,113.6,86.1,113.5,86,113.5 M86,114.3h1v4h-1V114.3z"/>
		<path class="st9" d="M87.8,118.2v-0.7c0.4,0.1,0.8,0.2,1.2,0.2c0.3,0,0.5,0,0.6-0.1c0.1-0.1,0.2-0.2,0.2-0.4c0-0.1,0-0.2-0.1-0.3
			c-0.1-0.1-0.2-0.1-0.4-0.2l-0.6-0.1c-0.4-0.1-0.6-0.2-0.8-0.4s-0.3-0.4-0.3-0.7c0-0.2,0.1-0.5,0.2-0.6c0.1-0.2,0.3-0.3,0.6-0.4
			c0.3-0.1,0.6-0.2,1-0.2c0.4,0,0.7,0,1,0.1v0.7c-0.3-0.1-0.6-0.1-1-0.1c-0.6,0-0.9,0.2-0.9,0.5c0,0.1,0,0.2,0.1,0.3
			c0.1,0.1,0.2,0.1,0.3,0.2l0.6,0.1c0.4,0.1,0.6,0.2,0.8,0.4c0.2,0.2,0.3,0.4,0.3,0.8c0,0.3-0.1,0.5-0.2,0.7
			c-0.1,0.2-0.3,0.3-0.6,0.4s-0.6,0.1-0.9,0.1C88.5,118.3,88.1,118.3,87.8,118.2"/>
		<path class="st9" d="M91.4,113.5c-0.1-0.1-0.2-0.2-0.2-0.4c0-0.2,0.1-0.3,0.2-0.4c0.1-0.1,0.3-0.1,0.5-0.1s0.4,0,0.5,0.1
			c0.1,0.1,0.2,0.2,0.2,0.4c0,0.2-0.1,0.3-0.2,0.4c-0.1,0.1-0.3,0.1-0.5,0.1S91.5,113.5,91.4,113.5 M91.4,114.3h1v4h-1V114.3z"/>
		<path class="st9" d="M95.7,117.5v0.8c-0.2,0.1-0.5,0.1-0.7,0.1c-0.9,0-1.4-0.5-1.4-1.4V115h-0.7v-0.8h0.7l0.2-1.4h0.8v1.4h1.1v0.8
			h-1.1v1.7c0,0.2,0,0.3,0.1,0.5s0.1,0.2,0.2,0.2c0.1,0,0.2,0.1,0.4,0.1C95.3,117.5,95.5,117.5,95.7,117.5"/>
		<path class="st10" d="M84.6,124.3l-0.5-1.6H82l-0.5,1.6h-1l1.8-5.4h1.4l1.8,5.4H84.6z M82.2,122h1.6l-0.8-2.5L82.2,122z"/>
		<path class="st10" d="M86.1,120.4h0.8l0.1,0.5H87c0.1-0.2,0.3-0.3,0.5-0.4s0.4-0.1,0.6-0.1c0.1,0,0.2,0,0.3,0v0.9
			c-0.1,0-0.2,0-0.4,0c-0.2,0-0.4,0-0.6,0.1c-0.2,0.1-0.3,0.2-0.4,0.3v2.7h-1V120.4z"/>
		<path class="st10" d="M89.6,126c-0.2,0-0.4-0.1-0.6-0.1v-0.8c0.4,0.1,0.8,0.2,1.2,0.2c0.3,0,0.5,0,0.7-0.1
			c0.2-0.1,0.3-0.2,0.4-0.3c0.1-0.2,0.1-0.4,0.1-0.6v-0.3h0c-0.1,0.1-0.3,0.3-0.5,0.3s-0.4,0.1-0.6,0.1c-0.3,0-0.5-0.1-0.8-0.2
			s-0.4-0.4-0.6-0.6s-0.2-0.7-0.2-1.1c0-0.7,0.2-1.2,0.5-1.6c0.4-0.4,0.9-0.5,1.6-0.5c0.2,0,0.5,0,0.7,0.1c0.3,0,0.5,0.1,0.7,0.2
			v3.6c0,0.5-0.1,0.8-0.2,1.1s-0.4,0.5-0.7,0.6c-0.3,0.1-0.7,0.2-1.1,0.2C90,126,89.8,126,89.6,126 M91,123.5
			c0.1-0.1,0.2-0.1,0.3-0.2v-2.2c-0.2,0-0.4-0.1-0.5-0.1c-0.4,0-0.7,0.1-0.8,0.3s-0.3,0.5-0.3,1c0,0.5,0.1,0.8,0.2,1
			c0.2,0.2,0.4,0.3,0.7,0.3C90.7,123.6,90.8,123.6,91,123.5"/>
		<path class="st10" d="M96.5,122.6H94c0,0.3,0.1,0.5,0.1,0.6s0.2,0.3,0.4,0.3c0.2,0.1,0.4,0.1,0.7,0.1c0.3,0,0.6,0,1-0.1v0.7
			c-0.4,0.1-0.8,0.1-1.1,0.1c-0.5,0-0.9-0.1-1.2-0.2c-0.3-0.1-0.5-0.4-0.7-0.7c-0.2-0.3-0.2-0.7-0.2-1.2c0-0.4,0.1-0.8,0.2-1.1
			c0.1-0.3,0.3-0.5,0.6-0.7s0.6-0.2,1-0.2c0.5,0,1,0.2,1.2,0.5s0.4,0.9,0.4,1.6V122.6z M94.2,121.2c-0.1,0.2-0.2,0.5-0.2,0.9h1.6
			c0-0.4-0.1-0.7-0.2-0.9c-0.1-0.2-0.3-0.3-0.6-0.3C94.5,120.9,94.3,121,94.2,121.2"/>
		<path class="st10" d="M97.2,120.4H98l0.1,0.4h0.1c0.2-0.2,0.3-0.3,0.5-0.4c0.2-0.1,0.4-0.1,0.7-0.1c0.4,0,0.7,0.1,1,0.4
			c0.2,0.2,0.4,0.6,0.4,1.1v2.5h-1v-2.5c0-0.3-0.1-0.5-0.2-0.6c-0.1-0.1-0.3-0.2-0.5-0.2c-0.2,0-0.3,0-0.5,0.1
			c-0.2,0.1-0.3,0.2-0.4,0.3v2.8h-1V120.4z"/>
		<path class="st10" d="M103.9,123.6v0.8c-0.2,0.1-0.5,0.1-0.7,0.1c-0.9,0-1.4-0.5-1.4-1.4v-1.9h-0.7v-0.8h0.7l0.2-1.4h0.8v1.4h1.1
			v0.8h-1.1v1.7c0,0.2,0,0.3,0.1,0.5s0.1,0.2,0.2,0.2s0.2,0.1,0.4,0.1C103.6,123.6,103.7,123.6,103.9,123.6"/>
		<path class="st10" d="M104.5,119.5c-0.1-0.1-0.2-0.2-0.2-0.4c0-0.2,0.1-0.3,0.2-0.4c0.1-0.1,0.3-0.1,0.5-0.1c0.2,0,0.4,0,0.5,0.1
			c0.1,0.1,0.2,0.2,0.2,0.4c0,0.2,0,0.3-0.2,0.4c-0.1,0.1-0.3,0.1-0.5,0.1C104.8,119.7,104.6,119.6,104.5,119.5 M104.5,120.4h1v4h-1
			V120.4z"/>
		<path class="st10" d="M106.4,120.4h0.8l0.1,0.4h0.1c0.2-0.2,0.3-0.3,0.5-0.4c0.2-0.1,0.4-0.1,0.7-0.1c0.4,0,0.7,0.1,1,0.4
			c0.2,0.2,0.4,0.6,0.4,1.1v2.5h-1v-2.5c0-0.3-0.1-0.5-0.2-0.6c-0.1-0.1-0.3-0.2-0.5-0.2c-0.2,0-0.3,0-0.5,0.1
			c-0.2,0.1-0.3,0.2-0.4,0.3v2.8h-1V120.4z"/>
		<path class="st10" d="M113.1,120.4c0.3,0.1,0.4,0.3,0.6,0.5s0.2,0.5,0.2,0.9v2.5H113l-0.1-0.4h-0.1c-0.1,0.2-0.3,0.3-0.5,0.4
			c-0.2,0.1-0.4,0.1-0.6,0.1c-0.3,0-0.5,0-0.7-0.1c-0.2-0.1-0.3-0.2-0.4-0.4s-0.2-0.4-0.2-0.6c0-0.4,0.1-0.7,0.4-0.9
			c0.3-0.2,0.7-0.3,1.2-0.4l0.7-0.1v-0.2c0-0.2,0-0.4-0.1-0.5c-0.1-0.1-0.2-0.2-0.3-0.2c-0.1,0-0.3-0.1-0.6-0.1c-0.2,0-0.3,0-0.5,0
			c-0.2,0-0.4,0.1-0.5,0.1v-0.7c0.2-0.1,0.4-0.1,0.6-0.1c0.2,0,0.4,0,0.6,0C112.5,120.3,112.8,120.3,113.1,120.4 M112.5,123.6
			c0.1-0.1,0.3-0.1,0.4-0.3v-0.8l-0.7,0.1c-0.3,0-0.4,0.1-0.5,0.2c-0.1,0.1-0.2,0.2-0.2,0.4c0,0.2,0.1,0.3,0.2,0.4
			c0.1,0.1,0.3,0.1,0.5,0.1C112.2,123.7,112.4,123.7,112.5,123.6"/>
		<path class="st11" d="M85.4,99.4L85.4,99.4l-0.1,0.2c0,0-0.1,0-0.2,0l-0.2,0l-0.4-0.1c-0.4-0.1-0.8-0.2-1.1-0.2
			c-0.6,0-1.1,0.1-1.5,0.4c-0.5,0.3-0.9,0.7-1.1,1.2c-0.3,0.5-0.4,1-0.4,1.6c0,0.4,0.1,0.8,0.2,1.1c0.1,0.4,0.3,0.7,0.6,1
			c0.3,0.3,0.6,0.5,1,0.7c0.4,0.2,0.8,0.3,1.3,0.3c0.4,0,0.8-0.1,1.1-0.2c0.3-0.1,0.6-0.3,1-0.6l0,0v-0.3v-0.2l-0.1,0.1
			c-0.3,0.3-0.6,0.5-0.9,0.6c-0.3,0.1-0.6,0.2-0.9,0.2c-0.3,0-0.6-0.1-0.9-0.2c-0.3-0.1-0.5-0.3-0.7-0.6c-0.2-0.2-0.4-0.5-0.5-0.9
			c-0.1-0.3-0.2-0.7-0.2-1.1c0-0.4,0.1-0.8,0.2-1.1c0.1-0.4,0.3-0.7,0.5-0.9c0.2-0.2,0.4-0.4,0.7-0.6c0.3-0.1,0.6-0.2,0.9-0.2
			c0.2,0,0.5,0,0.8,0.1c0.3,0.1,0.5,0.2,0.7,0.4c0.2,0.2,0.3,0.4,0.4,0.7l0,0.1h0.1h0.1l0-0.1l0.1-1.5H85.4L85.4,99.4z"/>
		<path class="st11" d="M89.8,99.7L89.8,99.7L89.8,99.7c0.3,0.1,0.4,0.1,0.5,0.2c0.1,0.1,0.1,0.2,0.1,0.4v1.9h-3.1v-1.9
			c0-0.2,0-0.3,0.1-0.4c0.1-0.1,0.2-0.2,0.4-0.2h0.1v-0.1v-0.1l-1.9,0v0.1v0.1H86c0.4,0,0.5,0.2,0.5,0.6v4.4c0,0.2,0,0.3-0.1,0.4
			c-0.1,0.1-0.2,0.1-0.4,0.1H86v0.1v0.1h1.9v-0.1v-0.1h-0.1c-0.2,0-0.3-0.1-0.4-0.1c-0.1-0.1-0.1-0.2-0.1-0.4v-2.2h3.1v2.2
			c0,0.2-0.1,0.3-0.1,0.4c-0.1,0.1-0.2,0.1-0.4,0.1h-0.1v0.1v0.1h1.9v-0.1v-0.1h-0.1c-0.4,0-0.5-0.2-0.5-0.6v-4.4
			c0-0.2,0-0.3,0.1-0.4c0.1-0.1,0.2-0.2,0.4-0.2h0.1v-0.1v-0.1h-1.9V99.7z"/>
		<path class="st11" d="M95.9,99.7L95.9,99.7L95.9,99.7c0.3,0.1,0.5,0.2,0.5,0.3c0.1,0.1,0.1,0.2,0.1,0.4v3.2c0,0.7-0.2,1.2-0.7,1.5
			c-0.2,0.1-0.3,0.2-0.5,0.2c-0.2,0-0.3,0.1-0.4,0.1c-0.3,0-0.6-0.1-0.8-0.2c-0.2-0.2-0.4-0.4-0.5-0.7c-0.1-0.3-0.2-0.7-0.2-1.3
			v-2.8c0-0.1,0-0.3,0.1-0.4c0.1-0.1,0.2-0.2,0.5-0.2l0.1,0v-0.1v-0.1h-1.9v0.1v0.1l0.1,0c0.3,0,0.4,0.1,0.4,0.2
			c0.1,0.1,0.1,0.2,0.1,0.4v2.9c0,0.2,0,0.5,0,0.7c0,0.2,0.1,0.5,0.2,0.7c0.2,0.3,0.4,0.6,0.7,0.8c0.3,0.2,0.7,0.3,1.1,0.3
			c0.4,0,0.7-0.1,1.1-0.3c0.3-0.2,0.5-0.4,0.7-0.7v0.8h1.3v-0.1v-0.1v-0.1l-0.1,0c-0.1,0-0.2-0.1-0.3-0.1l-0.2-0.2
			c0-0.1-0.1-0.2-0.1-0.3v-4.4c0-0.1,0-0.3,0.1-0.4c0.1-0.1,0.2-0.2,0.5-0.2l0.1,0v-0.1v-0.1h-1.9V99.7z"/>
		<path class="st11" d="M101,101.6L101,101.6c-0.1,0.2-0.2,0.3-0.2,0.3l-0.2,0.2c-0.1,0.1-0.3,0.1-0.6,0.1h-0.3v-2.3
			c0.2,0,0.3-0.1,0.4-0.1c0.2,0,0.3,0,0.4,0.1c0.1,0.1,0.2,0.2,0.3,0.3c0.1,0.1,0.2,0.2,0.2,0.4c0.1,0.1,0.1,0.3,0.1,0.5
			C101.1,101.3,101.1,101.5,101,101.6 M99.6,102.5L99.6,102.5h0.5c0.2,0,0.4,0,0.6,0.1c0.2,0.1,0.4,0.2,0.5,0.3
			c0.1,0.1,0.2,0.3,0.3,0.4c0.1,0.2,0.1,0.4,0.1,0.6c0,0.3-0.1,0.6-0.2,0.8c-0.2,0.3-0.5,0.5-1.1,0.5c-0.2,0-0.4,0-0.5-0.1
			c-0.1-0.1-0.2-0.1-0.2-0.2c0-0.1,0-0.2,0-0.3V102.5z M102.2,103.1c-0.1-0.1-0.2-0.2-0.3-0.3c-0.1-0.1-0.2-0.2-0.4-0.3
			c-0.1-0.1-0.3-0.1-0.4-0.2l-0.2,0c0.3-0.1,0.5-0.2,0.7-0.4c0.2-0.2,0.4-0.5,0.4-0.9c0-0.2,0-0.4-0.1-0.6c-0.1-0.2-0.2-0.3-0.3-0.5
			c-0.1-0.1-0.3-0.2-0.5-0.3c-0.2-0.1-0.4-0.1-0.7-0.1h-1.9v0.1v0.1h0.1c0.1,0,0.3,0,0.3,0.1s0.1,0.2,0.1,0.4v4.4
			c0,0.2,0,0.3-0.1,0.4c-0.1,0.1-0.2,0.1-0.3,0.1h-0.1h-0.1v0.1v0.1h2.2c0.5,0,0.9-0.1,1.2-0.2c0.2-0.1,0.4-0.3,0.5-0.5
			c0.2-0.2,0.2-0.5,0.2-0.8c0-0.1,0-0.3-0.1-0.4C102.4,103.3,102.3,103.2,102.2,103.1"/>
		<path class="st11" d="M106.4,99.7L106.4,99.7L106.4,99.7c0.3,0.1,0.5,0.2,0.5,0.3c0.1,0.1,0.1,0.2,0.1,0.4v3.2
			c0,0.7-0.2,1.2-0.7,1.5c-0.2,0.1-0.3,0.2-0.5,0.2c-0.2,0-0.3,0.1-0.4,0.1c-0.3,0-0.6-0.1-0.8-0.2c-0.2-0.2-0.4-0.4-0.5-0.7
			c-0.1-0.3-0.2-0.7-0.2-1.3v-2.8c0-0.1,0-0.3,0.1-0.4c0.1-0.1,0.2-0.2,0.4-0.2l0.1,0v-0.1v-0.1h-1.9v0.1v0.1l0.1,0
			c0.3,0,0.4,0.1,0.4,0.2c0.1,0.1,0.1,0.2,0.1,0.4v2.9c0,0.2,0,0.5,0,0.7c0,0.2,0.1,0.5,0.2,0.7c0.2,0.3,0.4,0.6,0.7,0.8
			c0.3,0.2,0.7,0.3,1.1,0.3c0.4,0,0.7-0.1,1.1-0.3c0.3-0.2,0.5-0.4,0.7-0.7v0.8h1.3v-0.1v-0.1v-0.1l-0.1,0c-0.1,0-0.2-0.1-0.3-0.1
			l-0.2-0.2c0-0.1-0.1-0.2-0.1-0.3v-4.4c0-0.1,0-0.3,0.1-0.4c0.1-0.1,0.2-0.2,0.4-0.2l0.1,0v-0.1v-0.1h-1.9V99.7z"/>
		<path class="st11" d="M113.6,99.2L113.6,99.2L113.6,99.2c-0.2,0.2-0.3,0.3-0.6,0.3h-3.7l-0.2,0l-0.2,0l-0.1-0.1l-0.1-0.1l0,0h-0.1
			h-0.1v1.6h0.1h0.1l0-0.1c0-0.4,0.1-0.6,0.3-0.7c0.2-0.1,0.4-0.2,0.7-0.2h1.1v4.8c0,0.2-0.1,0.4-0.1,0.4c-0.1,0.1-0.2,0.1-0.4,0.1
			l-0.1,0v0.1v0.1h1.9v-0.1v-0.1l-0.1,0c-0.4,0-0.5-0.2-0.6-0.6v-4.8h1.1c0.3,0,0.5,0.1,0.7,0.2c0.2,0.1,0.3,0.3,0.3,0.7l0,0.1h0.1
			h0.1v-0.1v-1.5H113.6z"/>
		<path class="st12" d="M87.4,93.3c0,0,0.4-0.3,0.4,0c0,0.3-0.2,1.2,0,1c0.2-0.3,0.7-1.1,0.7-0.7c0.1,0.4,0.2,1.6,0.3,1.1
			c0.1-0.5,0.7-1,0.9-0.5c0.2,0.5,1.2,2.2,0.9,1.8c-0.4-0.3-0.7-0.9-0.9-0.5c-0.2,0.4-0.4,1-0.7,0.8c-0.3-0.2-0.7-0.1-0.8,0.4
			c-0.1,0.4-0.7,0.9-0.8,0.3c0-0.6-0.3-1.2-0.6-0.9c-0.3,0.2-1,0.5-0.8,0.1C86.2,95.8,87.3,93.1,87.4,93.3"/>
		<path class="st13" d="M81.9,96.9c0-0.2,0.2-0.4,0.3-0.2c0.1,0.2,0.4,0.1,0.5-0.3c0.1-0.4,0.2-1.1,0.4-0.7c0.2,0.4,0.6,0.6,0.6,0.2
			c0-0.4,0.1-1.1,0.9-0.2l0.4,1c0,0-0.3,0.8-0.5,0.6s-0.7-0.4-0.7-0.1s-0.4,0.4-0.5,0.1c-0.1-0.2-0.5-0.5-0.5-0.2
			c0,0.2-0.2,0.6-0.4,0.3C82.2,97,81.8,97.4,81.9,96.9"/>
		<path class="st11" d="M80.6,97c0,0,2.4-3.1,3.2-2.9c0.7,0.2,1.6,1.9,1.9,1.9c0.4-0.1,1.6-4.2,2.7-4.2c1.2,0,2.7,3.2,2.8,3.7
			c0.2,0.4,1.4-0.8,2.1-0.8s3.7,1.8,7.2,2.5c5,0.9,9.8-0.2,12.4-3.7c0,0,0.9,0.4,0.9,1.1c0,0-2.5,3.9-10.7,3.6
			c-6-0.3-8.8-3.2-9.8-2.8c-1,0.3-1.7,1.3-2.2,1.4c0,0-0.3,0-0.5-0.2c-0.2-0.2-1.7-4.4-2.6-3.9c-0.9,0.5-1.7,5-2.3,5
			c-0.5,0.1-1.4-3.1-2.2-3c-0.8,0.1-1.9,3.5-2.3,3.5C80.7,98.1,80.3,97.3,80.6,97"/>
		<path class="st14" d="M80.9,107.6L80.9,107.6h0.3c0.1,0,0.3,0,0.3-0.1c0.1-0.1,0.1-0.1,0.1-0.2c0-0.1,0-0.2-0.1-0.2
			c-0.1-0.1-0.2-0.1-0.3-0.1h-0.3V107.6z M80.6,108.8v-2.1h0.6c0.2,0,0.4,0.1,0.5,0.2c0.1,0.1,0.2,0.3,0.2,0.4
			c0,0.2-0.1,0.3-0.2,0.4c-0.1,0.1-0.3,0.2-0.5,0.2h-0.4v0.9H80.6z"/>
		<path class="st14" d="M82.5,107.9L82.5,107.9h0.6l-0.3-0.8L82.5,107.9z M81.8,108.8l0.9-2.1h0.2l0.9,2.1h-0.3l-0.3-0.6h-0.9
			l-0.3,0.6H81.8z"/>
		<polygon class="st14" points="84.4,108.8 84.4,107 83.6,107 83.6,106.7 85.4,106.7 85.4,107 84.7,107 84.7,108.8 		"/>
		<path class="st14" d="M85.8,107.9L85.8,107.9h0.7l-0.3-0.8L85.8,107.9z M85.2,108.8l0.9-2.1h0.2l0.9,2.1h-0.3l-0.3-0.6h-0.9
			l-0.3,0.6H85.2z"/>
		<path class="st14" d="M89.1,107.8v0.9c-0.1,0.1-0.3,0.1-0.4,0.1c-0.1,0-0.2,0-0.4,0c-0.1,0-0.2,0-0.4,0s-0.2-0.1-0.3-0.1
			c-0.2-0.1-0.3-0.2-0.4-0.4c-0.1-0.2-0.1-0.3-0.1-0.5c0-0.1,0-0.3,0.1-0.4c0.1-0.1,0.1-0.3,0.2-0.3c0.1-0.1,0.2-0.2,0.4-0.2
			c0.1-0.1,0.3-0.1,0.5-0.1c0.1,0,0.2,0,0.3,0c0.1,0,0.2,0.1,0.4,0.1v0.3c-0.1-0.1-0.3-0.1-0.4-0.2c-0.1,0-0.2,0-0.3,0
			c-0.2,0-0.4,0.1-0.6,0.2c-0.2,0.2-0.2,0.3-0.2,0.6c0,0.2,0.1,0.4,0.2,0.6c0.2,0.2,0.4,0.2,0.6,0.2l0.2,0l0.2-0.1V108h-0.4v-0.3
			H89.1z"/>
		<path class="st14" d="M89.7,107.7L89.7,107.7c0,0.1,0,0.2,0.1,0.3c0,0.1,0.1,0.2,0.2,0.3c0.1,0.1,0.2,0.1,0.3,0.2
			c0.1,0,0.2,0.1,0.3,0.1c0.1,0,0.2,0,0.3-0.1c0.1,0,0.2-0.1,0.3-0.2c0.1-0.1,0.1-0.2,0.2-0.3c0-0.1,0.1-0.2,0.1-0.3
			c0-0.1,0-0.2-0.1-0.3c0-0.1-0.1-0.2-0.2-0.3c-0.1-0.1-0.2-0.1-0.3-0.2c-0.1,0-0.2-0.1-0.3-0.1c-0.1,0-0.2,0-0.3,0.1
			c-0.1,0-0.2,0.1-0.3,0.2c-0.1,0.1-0.1,0.2-0.2,0.3C89.7,107.5,89.7,107.6,89.7,107.7 M89.4,107.7c0-0.1,0-0.3,0.1-0.4
			c0.1-0.1,0.1-0.2,0.2-0.3c0.1-0.1,0.2-0.2,0.4-0.2c0.1-0.1,0.3-0.1,0.4-0.1c0.2,0,0.3,0,0.4,0.1c0.1,0.1,0.3,0.1,0.4,0.2
			c0.1,0.1,0.2,0.2,0.2,0.4c0.1,0.1,0.1,0.3,0.1,0.4c0,0.1,0,0.3-0.1,0.4c-0.1,0.1-0.1,0.2-0.2,0.3c-0.1,0.1-0.2,0.2-0.4,0.2
			c-0.1,0.1-0.3,0.1-0.4,0.1c-0.1,0-0.3,0-0.4-0.1c-0.1-0.1-0.3-0.1-0.4-0.2c-0.1-0.1-0.2-0.2-0.2-0.4
			C89.4,108,89.4,107.9,89.4,107.7"/>
		<polygon class="st14" points="91.9,108.8 91.9,106.7 92.2,106.7 93.6,108.3 93.6,106.7 93.9,106.7 93.9,108.8 93.6,108.8 
			92.2,107.2 92.2,108.8 		"/>
		<rect x="94.3" y="106.7" class="st14" width="0.3" height="2.1"/>
		<path class="st14" d="M95.5,107.9L95.5,107.9h0.7l-0.3-0.8L95.5,107.9z M94.8,108.8l0.9-2.1h0.2l0.9,2.1h-0.3l-0.3-0.6h-0.9
			l-0.3,0.6H94.8z"/>
		<path class="st14" d="M98,107.9L98,107.9h0.8l-0.4-0.9L98,107.9z M97.5,108.8l0.9-2.1h0.1l0.9,2.1h-0.2l-0.3-0.7h-0.9l-0.3,0.7
			H97.5z"/>
		<path class="st14" d="M99.7,106.8L99.7,106.8v0.8h0.1c0.2,0,0.3,0,0.3,0l0.2,0l0.2-0.1l0.1-0.2c0-0.1,0-0.2-0.1-0.3
			c-0.1-0.1-0.2-0.1-0.4-0.1H99.7z M99.5,106.7h0.5c0.2,0,0.4,0,0.5,0.1c0.1,0.1,0.2,0.2,0.2,0.4c0,0.1,0,0.2-0.1,0.3
			c-0.1,0.1-0.2,0.1-0.3,0.2l0.1,0.1l0.1,0.1l0.6,0.9h-0.2l-0.3-0.5c-0.1-0.1-0.1-0.2-0.2-0.3l-0.1-0.1l-0.1-0.1c-0.1,0-0.2,0-0.3,0
			h-0.2v1h-0.2V106.7z"/>
		<path class="st14" d="M102.9,108.6c-0.1,0.1-0.3,0.1-0.4,0.1c-0.1,0-0.2,0-0.4,0c-0.1,0-0.2,0-0.3,0c-0.1,0-0.2-0.1-0.3-0.1
			c-0.2-0.1-0.3-0.2-0.4-0.4c-0.1-0.2-0.1-0.3-0.1-0.5c0-0.1,0-0.3,0.1-0.4c0.1-0.1,0.1-0.3,0.2-0.3c0.1-0.1,0.2-0.2,0.4-0.2
			c0.1-0.1,0.3-0.1,0.4-0.1c0.1,0,0.2,0,0.4,0c0.1,0,0.2,0.1,0.4,0.1v0.2c-0.1-0.1-0.3-0.1-0.4-0.2c-0.1,0-0.2-0.1-0.3-0.1
			c-0.1,0-0.2,0-0.3,0l-0.3,0.1c-0.1,0.1-0.2,0.2-0.3,0.3c-0.1,0.1-0.1,0.3-0.1,0.4c0,0.1,0,0.2,0.1,0.4c0,0.1,0.1,0.2,0.2,0.3
			c0.1,0.1,0.2,0.2,0.3,0.2c0.1,0,0.2,0.1,0.4,0.1c0.1,0,0.2,0,0.3,0c0.1,0,0.2-0.1,0.3-0.1V108h-0.4v-0.1h0.6V108.6z"/>
		<polygon class="st14" points="103.4,108.8 103.4,106.7 104.5,106.7 104.5,106.8 103.6,106.8 103.6,107.7 104.5,107.7 104.5,107.8 
			103.6,107.8 103.6,108.7 104.5,108.7 104.5,108.8 		"/>
		<polygon class="st14" points="104.9,108.8 104.9,106.7 105.1,106.7 106.6,108.5 106.6,106.7 106.8,106.7 106.8,108.8 106.6,108.8 
			105.1,106.9 105.1,108.8 		"/>
		<polygon class="st14" points="107.8,108.8 107.8,106.9 107,106.9 107,106.7 108.8,106.7 108.8,106.9 108,106.9 108,108.8 		"/>
		<rect x="109" y="106.7" class="st14" width="0.2" height="2.1"/>
		<polygon class="st14" points="109.7,108.8 109.7,106.7 109.9,106.7 111.4,108.5 111.4,106.7 111.6,106.7 111.6,108.8 111.4,108.8 
			109.9,106.9 109.9,108.8 		"/>
		<path class="st14" d="M112.3,107.9L112.3,107.9h0.8l-0.4-0.9L112.3,107.9z M111.7,108.8l0.9-2.1h0.1l0.9,2.1h-0.2l-0.3-0.7h-0.9
			l-0.3,0.7H111.7z"/>
	</g>
	<path class="st15" d="M123.2,110.9c0-0.2,0.2-0.4,0.4-0.4h0.1c0.2,0,0.3,0.1,0.4,0.2l1,1.6l1-1.7c0.1-0.1,0.2-0.2,0.4-0.2h0.1
		c0.2,0,0.4,0.2,0.4,0.4v3c0,0.2-0.2,0.4-0.4,0.4c-0.2,0-0.4-0.2-0.4-0.4v-1.9l-0.7,1.1c-0.1,0.1-0.2,0.2-0.3,0.2
		c-0.2,0-0.3-0.1-0.3-0.2l-0.7-1.1v1.9c0,0.2-0.2,0.4-0.4,0.4c-0.2,0-0.4-0.2-0.4-0.4V110.9z"/>
	<path class="st15" d="M130.3,114c0,0.2-0.2,0.4-0.4,0.4c-0.2,0-0.4-0.2-0.4-0.4v0c-0.2,0.2-0.4,0.5-0.9,0.5c-0.6,0-1-0.4-1-1.1
		v-1.5c0-0.2,0.2-0.4,0.4-0.4c0.2,0,0.4,0.2,0.4,0.4v1.2c0,0.4,0.2,0.6,0.5,0.6s0.5-0.2,0.5-0.6v-1.2c0-0.2,0.2-0.4,0.4-0.4
		c0.2,0,0.4,0.2,0.4,0.4V114z"/>
	<path class="st15" d="M130.7,111.8c0-0.2,0.2-0.4,0.4-0.4s0.4,0.2,0.4,0.4v0c0.2-0.2,0.4-0.5,0.9-0.5c0.6,0,1,0.4,1,1.1v1.5
		c0,0.2-0.2,0.4-0.4,0.4s-0.4-0.2-0.4-0.4v-1.2c0-0.4-0.2-0.6-0.5-0.6s-0.5,0.2-0.5,0.6v1.2c0,0.2-0.2,0.4-0.4,0.4s-0.4-0.2-0.4-0.4
		V111.8z"/>
	<path class="st15" d="M133.8,110.7c0-0.2,0.2-0.4,0.5-0.4c0.3,0,0.5,0.1,0.5,0.4v0c0,0.2-0.2,0.4-0.5,0.4
		C134,111.1,133.8,111,133.8,110.7L133.8,110.7z M133.9,111.8c0-0.2,0.2-0.4,0.4-0.4s0.4,0.2,0.4,0.4v2.2c0,0.2-0.2,0.4-0.4,0.4
		s-0.4-0.2-0.4-0.4V111.8z"/>
	<path class="st15" d="M135.1,112.9L135.1,112.9c0-0.8,0.6-1.5,1.5-1.5c0.4,0,0.8,0.1,1,0.3c0.1,0,0.1,0.1,0.1,0.3
		c0,0.2-0.2,0.4-0.4,0.4c-0.1,0-0.2,0-0.2-0.1c-0.1-0.1-0.3-0.2-0.5-0.2c-0.4,0-0.7,0.4-0.7,0.8v0c0,0.4,0.3,0.8,0.7,0.8
		c0.2,0,0.4-0.1,0.5-0.2c0,0,0.1-0.1,0.2-0.1c0.2,0,0.3,0.2,0.3,0.4c0,0.1,0,0.2-0.1,0.3c-0.2,0.2-0.6,0.4-1,0.4
		C135.7,114.4,135.1,113.8,135.1,112.9z"/>
	<path class="st15" d="M138,110.7c0-0.2,0.2-0.4,0.5-0.4c0.3,0,0.5,0.1,0.5,0.4v0c0,0.2-0.2,0.4-0.5,0.4
		C138.2,111.1,138,111,138,110.7L138,110.7z M138.1,111.8c0-0.2,0.2-0.4,0.4-0.4c0.2,0,0.4,0.2,0.4,0.4v2.2c0,0.2-0.2,0.4-0.4,0.4
		c-0.2,0-0.4-0.2-0.4-0.4V111.8z"/>
	<path class="st15" d="M139.4,111.8c0-0.2,0.2-0.4,0.4-0.4c0.2,0,0.4,0.2,0.4,0.4v0c0.2-0.3,0.5-0.5,0.9-0.5c0.7,0,1.3,0.5,1.3,1.5
		v0c0,1-0.6,1.5-1.3,1.5c-0.4,0-0.7-0.2-0.9-0.4v0.9c0,0.2-0.2,0.4-0.4,0.4c-0.2,0-0.4-0.2-0.4-0.4V111.8z M141.7,112.9L141.7,112.9
		c0-0.5-0.3-0.8-0.7-0.8s-0.7,0.3-0.7,0.8v0c0,0.5,0.3,0.8,0.7,0.8S141.7,113.4,141.7,112.9z"/>
	<path class="st15" d="M142.6,113.5L142.6,113.5c0-0.6,0.5-0.9,1.2-0.9c0.3,0,0.5,0,0.7,0.1v0c0-0.3-0.2-0.5-0.6-0.5
		c-0.2,0-0.4,0-0.6,0.1l-0.1,0c-0.2,0-0.3-0.1-0.3-0.3c0-0.1,0.1-0.3,0.2-0.3c0.3-0.1,0.5-0.2,0.9-0.2c0.5,0,0.8,0.1,1,0.3
		c0.2,0.2,0.3,0.5,0.3,0.9v1.3c0,0.2-0.2,0.4-0.4,0.4c-0.2,0-0.4-0.2-0.4-0.3v0c-0.2,0.2-0.5,0.4-0.9,0.4
		C143.1,114.4,142.6,114.1,142.6,113.5z M144.5,113.3v-0.1c-0.1-0.1-0.3-0.1-0.5-0.1c-0.4,0-0.6,0.1-0.6,0.4v0
		c0,0.2,0.2,0.4,0.5,0.4C144.3,113.8,144.5,113.6,144.5,113.3z"/>
	<path class="st15" d="M145.8,110.8c0-0.2,0.2-0.4,0.4-0.4c0.2,0,0.4,0.2,0.4,0.4v3.2c0,0.2-0.2,0.4-0.4,0.4c-0.2,0-0.4-0.2-0.4-0.4
		V110.8z"/>
	<path class="st15" d="M147.1,110.7c0-0.2,0.2-0.4,0.5-0.4s0.5,0.1,0.5,0.4v0c0,0.2-0.2,0.4-0.5,0.4S147.1,111,147.1,110.7
		L147.1,110.7z M147.2,111.8c0-0.2,0.2-0.4,0.4-0.4s0.4,0.2,0.4,0.4v2.2c0,0.2-0.2,0.4-0.4,0.4s-0.4-0.2-0.4-0.4V111.8z"/>
	<path class="st15" d="M151.4,114c0,0.2-0.2,0.4-0.4,0.4s-0.4-0.2-0.4-0.4v0c-0.2,0.3-0.5,0.5-0.9,0.5c-0.7,0-1.3-0.5-1.3-1.5v0
		c0-1,0.6-1.5,1.3-1.5c0.4,0,0.7,0.2,0.9,0.4v-1.1c0-0.2,0.2-0.4,0.4-0.4s0.4,0.2,0.4,0.4V114z M149.2,112.9L149.2,112.9
		c0,0.5,0.3,0.8,0.7,0.8c0.4,0,0.7-0.3,0.7-0.8v0c0-0.5-0.3-0.8-0.7-0.8C149.5,112.1,149.2,112.4,149.2,112.9z"/>
	<path class="st15" d="M151.7,113.5L151.7,113.5c0-0.6,0.5-0.9,1.2-0.9c0.3,0,0.5,0,0.7,0.1v0c0-0.3-0.2-0.5-0.6-0.5
		c-0.2,0-0.4,0-0.6,0.1l-0.1,0c-0.2,0-0.3-0.1-0.3-0.3c0-0.1,0.1-0.3,0.2-0.3c0.3-0.1,0.5-0.2,0.9-0.2c0.5,0,0.8,0.1,1,0.3
		c0.2,0.2,0.3,0.5,0.3,0.9v1.3c0,0.2-0.2,0.4-0.4,0.4c-0.2,0-0.4-0.2-0.4-0.3v0c-0.2,0.2-0.5,0.4-0.9,0.4
		C152.2,114.4,151.7,114.1,151.7,113.5z M153.6,113.3v-0.1c-0.1-0.1-0.3-0.1-0.5-0.1c-0.4,0-0.6,0.1-0.6,0.4v0
		c0,0.2,0.2,0.4,0.5,0.4C153.4,113.8,153.6,113.6,153.6,113.3z"/>
	<path class="st15" d="M157.8,114c0,0.2-0.2,0.4-0.4,0.4s-0.4-0.2-0.4-0.4v0c-0.2,0.3-0.5,0.5-0.9,0.5c-0.7,0-1.3-0.5-1.3-1.5v0
		c0-1,0.6-1.5,1.3-1.5c0.4,0,0.7,0.2,0.9,0.4v-1.1c0-0.2,0.2-0.4,0.4-0.4s0.4,0.2,0.4,0.4V114z M155.6,112.9L155.6,112.9
		c0,0.5,0.3,0.8,0.7,0.8c0.4,0,0.7-0.3,0.7-0.8v0c0-0.5-0.3-0.8-0.7-0.8C155.9,112.1,155.6,112.4,155.6,112.9z"/>
	<path class="st15" d="M125.4,117.8c0,0.2-0.1,0.3-0.3,0.3c-0.2,0-0.3-0.1-0.3-0.3v0c-0.2,0.2-0.4,0.4-0.7,0.4c-0.5,0-1-0.4-1-1.2v0
		c0-0.8,0.5-1.2,1-1.2c0.3,0,0.6,0.2,0.7,0.3v-0.8c0-0.2,0.1-0.3,0.3-0.3c0.2,0,0.3,0.1,0.3,0.3V117.8z M123.7,116.9L123.7,116.9
		c0,0.4,0.3,0.6,0.6,0.6s0.6-0.3,0.6-0.6v0c0-0.4-0.3-0.6-0.6-0.6S123.7,116.6,123.7,116.9z"/>
	<path class="st15" d="M126.9,118.1c-0.7,0-1.2-0.5-1.2-1.2v0c0-0.7,0.5-1.2,1.1-1.2c0.8,0,1.1,0.6,1.1,1.1c0,0.2-0.1,0.3-0.3,0.3
		h-1.3c0.1,0.3,0.3,0.4,0.6,0.4c0.2,0,0.3-0.1,0.5-0.2l0.2-0.1c0.1,0,0.3,0.1,0.3,0.3l-0.1,0.2C127.5,118,127.2,118.1,126.9,118.1z
		 M127.3,116.8c0-0.3-0.2-0.5-0.5-0.5c-0.3,0-0.4,0.2-0.5,0.5H127.3z"/>
	<path class="st15" d="M129.3,115.4c0-0.2,0.1-0.3,0.3-0.3h0.9c0.7,0,1.1,0.4,1.1,1v0c0,0.7-0.5,1-1.2,1H130v0.6
		c0,0.2-0.1,0.3-0.3,0.3c-0.2,0-0.3-0.1-0.3-0.3V115.4z M130.5,116.6c0.3,0,0.5-0.2,0.5-0.5v0c0-0.3-0.2-0.5-0.5-0.5H130v0.9H130.5z
		"/>
	<path class="st15" d="M134,117.8c0,0.2-0.1,0.3-0.3,0.3c-0.2,0-0.3-0.1-0.3-0.3v0c-0.1,0.2-0.3,0.4-0.7,0.4c-0.5,0-0.8-0.3-0.8-0.8
		v-1.2c0-0.2,0.1-0.3,0.3-0.3c0.2,0,0.3,0.1,0.3,0.3v1c0,0.3,0.1,0.5,0.4,0.5s0.4-0.2,0.4-0.5v-1c0-0.2,0.1-0.3,0.3-0.3
		c0.2,0,0.3,0.1,0.3,0.3V117.8z"/>
	<path class="st15" d="M135.4,118.1c-0.7,0-1.2-0.5-1.2-1.2v0c0-0.7,0.5-1.2,1.1-1.2c0.8,0,1.1,0.6,1.1,1.1c0,0.2-0.1,0.3-0.3,0.3
		h-1.3c0.1,0.3,0.3,0.4,0.6,0.4c0.2,0,0.3-0.1,0.5-0.2l0.2-0.1c0.1,0,0.3,0.1,0.3,0.3l-0.1,0.2C136,118,135.7,118.1,135.4,118.1z
		 M135.8,116.8c0-0.3-0.2-0.5-0.5-0.5c-0.3,0-0.4,0.2-0.5,0.5H135.8z"/>
	<path class="st15" d="M136.7,116.1c0-0.2,0.1-0.3,0.3-0.3s0.3,0.1,0.3,0.3v0.1c0.1-0.2,0.2-0.4,0.4-0.4c0.2,0,0.3,0.1,0.3,0.3
		c0,0.2-0.1,0.3-0.2,0.3c-0.3,0.1-0.5,0.3-0.5,0.8v0.6c0,0.2-0.1,0.3-0.3,0.3s-0.3-0.1-0.3-0.3V116.1z"/>
	<path class="st15" d="M138.6,117.4v-1.1h0c-0.2,0-0.3-0.1-0.3-0.3c0-0.2,0.1-0.3,0.3-0.3h0v-0.3c0-0.2,0.1-0.3,0.3-0.3
		c0.2,0,0.3,0.1,0.3,0.3v0.3h0.3c0.2,0,0.3,0.1,0.3,0.3c0,0.2-0.1,0.3-0.3,0.3h-0.3v1c0,0.1,0.1,0.2,0.2,0.2l0.1,0
		c0.1,0,0.3,0.1,0.3,0.3c0,0.1-0.1,0.2-0.2,0.2c-0.1,0-0.2,0.1-0.4,0.1C138.9,118.1,138.6,118,138.6,117.4z"/>
	<path class="st15" d="M139.9,117L139.9,117c0-0.7,0.5-1.2,1.2-1.2c0.7,0,1.2,0.5,1.2,1.2v0c0,0.7-0.5,1.2-1.2,1.2
		C140.4,118.1,139.9,117.6,139.9,117z M141.7,117L141.7,117c0-0.3-0.2-0.6-0.6-0.6c-0.4,0-0.6,0.3-0.6,0.6v0c0,0.3,0.2,0.6,0.6,0.6
		C141.5,117.6,141.7,117.3,141.7,117z"/>
	<path class="st15" d="M143.7,115.4c0-0.2,0.1-0.3,0.3-0.3h0.1c0.1,0,0.2,0.1,0.3,0.2l0.8,1.3l0.8-1.3c0.1-0.1,0.2-0.2,0.3-0.2h0.1
		c0.2,0,0.3,0.1,0.3,0.3v2.4c0,0.2-0.1,0.3-0.3,0.3c-0.2,0-0.3-0.1-0.3-0.3v-1.5l-0.6,0.9c-0.1,0.1-0.2,0.2-0.3,0.2
		c-0.1,0-0.2-0.1-0.3-0.2l-0.6-0.9v1.5c0,0.2-0.1,0.3-0.3,0.3c-0.2,0-0.3-0.1-0.3-0.3V115.4z"/>
	<path class="st15" d="M147,117.4L147,117.4c0-0.5,0.4-0.7,0.9-0.7c0.2,0,0.4,0,0.6,0.1v0c0-0.3-0.2-0.4-0.5-0.4
		c-0.2,0-0.3,0-0.4,0.1l-0.1,0c-0.1,0-0.3-0.1-0.3-0.3c0-0.1,0.1-0.2,0.2-0.3c0.2-0.1,0.4-0.1,0.7-0.1c0.4,0,0.6,0.1,0.8,0.3
		c0.2,0.2,0.2,0.4,0.2,0.7v1c0,0.2-0.1,0.3-0.3,0.3c-0.2,0-0.3-0.1-0.3-0.3v0c-0.2,0.2-0.4,0.3-0.7,0.3
		C147.3,118.1,147,117.9,147,117.4z M148.5,117.3v-0.1c-0.1-0.1-0.3-0.1-0.4-0.1c-0.3,0-0.4,0.1-0.4,0.3v0c0,0.2,0.1,0.3,0.4,0.3
		C148.3,117.7,148.5,117.5,148.5,117.3z"/>
	<path class="st15" d="M151.7,117.8c0,0.2-0.1,0.3-0.3,0.3c-0.2,0-0.3-0.1-0.3-0.3v0c-0.2,0.2-0.4,0.4-0.7,0.4c-0.5,0-1-0.4-1-1.2v0
		c0-0.8,0.5-1.2,1-1.2c0.3,0,0.6,0.2,0.7,0.3v-0.8c0-0.2,0.1-0.3,0.3-0.3c0.2,0,0.3,0.1,0.3,0.3V117.8z M150,116.9L150,116.9
		c0,0.4,0.3,0.6,0.6,0.6s0.6-0.3,0.6-0.6v0c0-0.4-0.3-0.6-0.6-0.6S150,116.6,150,116.9z"/>
	<path class="st15" d="M152.1,116.1c0-0.2,0.1-0.3,0.3-0.3s0.3,0.1,0.3,0.3v0.1c0.1-0.2,0.2-0.4,0.4-0.4c0.2,0,0.3,0.1,0.3,0.3
		c0,0.2-0.1,0.3-0.2,0.3c-0.3,0.1-0.5,0.3-0.5,0.8v0.6c0,0.2-0.1,0.3-0.3,0.3s-0.3-0.1-0.3-0.3V116.1z"/>
	<path class="st15" d="M153.8,118.7c-0.1,0-0.2-0.1-0.2-0.3c0-0.2,0.1-0.3,0.3-0.3l0.1,0l0.1,0c0.1,0,0.2,0,0.2-0.1l0,0l-0.8-1.8
		l0-0.1c0-0.2,0.1-0.3,0.3-0.3c0.2,0,0.3,0.1,0.3,0.2l0.5,1.3l0.5-1.3c0.1-0.1,0.1-0.2,0.3-0.2c0.2,0,0.3,0.1,0.3,0.3l0,0.2
		l-0.8,1.9c-0.2,0.5-0.4,0.6-0.8,0.6C154.1,118.8,154,118.8,153.8,118.7z"/>
	<path class="st15" d="M155.9,116.1c0-0.2,0.1-0.3,0.3-0.3s0.3,0.1,0.3,0.3v0c0.1-0.2,0.3-0.4,0.7-0.4c0.5,0,0.8,0.3,0.8,0.8v1.2
		c0,0.2-0.1,0.3-0.3,0.3c-0.2,0-0.3-0.1-0.3-0.3v-1c0-0.3-0.1-0.5-0.4-0.5c-0.2,0-0.4,0.2-0.4,0.5v1c0,0.2-0.1,0.3-0.3,0.3
		s-0.3-0.1-0.3-0.3V116.1z"/>
	<path class="st15" d="M136.5,119.8L136.5,119.8c0-0.5,0.3-0.8,0.8-0.8c0.3,0,0.4,0.1,0.6,0.2l0,0l-0.1,0.1l0,0
		c-0.1-0.1-0.3-0.2-0.5-0.2c-0.4,0-0.7,0.3-0.7,0.7v0c0,0.4,0.3,0.7,0.7,0.7c0.2,0,0.4-0.1,0.5-0.2l0,0l0.1,0.1l0,0
		c-0.2,0.2-0.3,0.2-0.6,0.2C136.9,120.6,136.5,120.2,136.5,119.8z"/>
	<path class="st15" d="M138.3,118.9L138.3,118.9h0.1v0.7c0.1-0.1,0.2-0.2,0.4-0.2c0.3,0,0.5,0.2,0.5,0.5v0.7l-0.1,0.1l-0.1-0.1v-0.6
		c0-0.2-0.1-0.4-0.4-0.4c-0.2,0-0.4,0.2-0.4,0.4v0.6l-0.1,0.1l-0.1-0.1V118.9z"/>
	<path class="st15" d="M140.6,120.5L140.6,120.5h-0.1v-0.2c-0.1,0.1-0.2,0.2-0.4,0.2c-0.3,0-0.5-0.2-0.5-0.5v-0.7l0.1-0.1l0.1,0.1
		v0.6c0,0.2,0.1,0.4,0.4,0.4c0.2,0,0.4-0.2,0.4-0.4v-0.6l0.1-0.1l0.1,0.1V120.5z"/>
	<path class="st15" d="M141,118.9L141,118.9h0.1v0.7c0.1-0.2,0.2-0.3,0.5-0.3c0.3,0,0.6,0.2,0.6,0.6v0c0,0.4-0.3,0.6-0.6,0.6
		c-0.2,0-0.4-0.1-0.5-0.3v0.2l-0.1,0.1l-0.1-0.1V118.9z M142.1,120L142.1,120c0-0.3-0.2-0.5-0.5-0.5c-0.2,0-0.5,0.2-0.5,0.5v0
		c0,0.3,0.2,0.5,0.5,0.5C141.9,120.5,142.1,120.3,142.1,120z"/>
	<path class="st15" d="M143.5,120.5L143.5,120.5h-0.1v-0.2c-0.1,0.1-0.2,0.2-0.4,0.2c-0.3,0-0.5-0.2-0.5-0.5v-0.7l0.1-0.1l0.1,0.1
		v0.6c0,0.2,0.1,0.4,0.4,0.4c0.2,0,0.4-0.2,0.4-0.4v-0.6l0.1-0.1l0.1,0.1V120.5z"/>
	<path class="st15" d="M144,120.2v-0.8h-0.1l-0.1-0.1l0.1,0h0.1v-0.3l0.1-0.1l0.1,0.1v0.3h0.4l0.1,0.1l-0.1,0h-0.4v0.7
		c0,0.2,0.1,0.2,0.2,0.2l0.1,0l0,0.1l0,0l-0.2,0C144.1,120.6,144,120.5,144,120.2z"/>
	<polygon class="st16" points="136.2,103 145,103 144.6,104.7 143.6,106.5 142,108.2 140.7,109.1 139,108 137.3,106 136.6,104.5 	
		"/>
	<path class="st16" d="M145.1,101.3L145.1,101.3l0-1.9l-2-0.6l-1.8-1.4h-1.8l-1.2,1.2l-2.4,1l0,1.5h0l0,0l0,0.3h0
		c0,0.5,0.1,1.4,0.1,1.5l0.8,0.9l0.7,0.7l1.3,1.1l1.6,0.2l1.8-0.4l1.3-1l1-1.2l0.6-0.7l0-0.5L145.1,101.3z"/>
	<path class="st17" d="M144.8,103l-8.6,0c1.1,1.8,2.3,2.9,4.2,3C142.2,105.9,143.4,105,144.8,103"/>
	<path class="st18" d="M138,104.8c0,0.1,0.1,0.4,0.2,0.6l0.1,0.1c0.1,0,0.1,0.1,0.2,0.2l0,0.2c0.1,0.1,0.1,0.2,0.2,0.4
		c-0.1-0.1-0.2-0.3-0.2-0.4l-0.2-0.1c0.1,0.2,0.1,0.3,0.2,0.5c0.1,0.1,0.2,0.2,0.3,0.3l0,0.2c0.1,0.1,0.2,0.2,0.2,0.3l0,0
		c-0.1-0.1-0.2-0.2-0.2-0.3l-0.2-0.1c0.1,0.2,0.2,0.3,0.3,0.5l0.2,0.1l0.2,0.1l0.1,0.1c0.1,0.1,0.2,0.2,0.3,0.3
		c0,0.1-0.2-0.1-0.3-0.2l-0.2,0c0.2,0.1,0.3,0.3,0.4,0.4l0.2,0.1l0.2,0.2l0,0l0,0l-0.2,0c0.1,0.1,0.2,0.2,0.3,0.1l0.1,0l0.2,0.1
		c-0.1,0-0.2,0-0.1,0l0.2,0.1l0.1,0l0.1,0.1l0,0l-0.1,0.1l0.1,0l0.1-0.1l0,0l0,0l0.1,0.1l0.1,0l-0.1-0.1l0,0l0.1-0.1l0.1,0l0.2-0.1
		c0,0,0,0-0.1,0l0.2-0.1l0.1,0c0.1,0,0.2,0,0.3-0.1l-0.2,0l0,0l0,0l0.2-0.2l0.2-0.1c0.1-0.1,0.3-0.2,0.4-0.4l-0.2,0
		c-0.1,0.1-0.3,0.3-0.3,0.2c0.1-0.1,0.2-0.2,0.3-0.3l0.1-0.1l0.2-0.1l0.2-0.1c0.1-0.2,0.2-0.3,0.3-0.5l-0.2,0.1
		c-0.1,0.1-0.2,0.2-0.2,0.3l0,0c0.1-0.1,0.2-0.2,0.2-0.3l0-0.2c0.1-0.1,0.2-0.2,0.3-0.3c0.1-0.2,0.1-0.3,0.2-0.5l-0.2,0.1
		c-0.1,0.1-0.1,0.3-0.2,0.4c0.1-0.1,0.1-0.2,0.2-0.4l0-0.2c0-0.1,0.1-0.1,0.2-0.2l0.1-0.1c0-0.2,0.1-0.5,0.2-0.6
		c-0.1,0-0.2,0.2-0.2,0.1c0,0-0.1,0.1-0.1,0.4l-0.1,0.1c0-0.1,0.1-0.3,0.1-0.4l-0.1-0.3l-0.1,0.3c0,0.1,0,0.3,0,0.4c0,0.1,0,0.1,0,0
		c0-0.1,0-0.3,0-0.4l-0.1-0.2c0,0.2,0,0.4,0,0.6l0.1,0.2l0,0.2l-0.1,0.2c0,0.1-0.1,0.2-0.1,0.3c0,0.1,0,0.1,0,0
		c0-0.1,0.1-0.2,0.1-0.4l-0.1-0.3c0,0.1-0.1,0.2-0.1,0.3c0,0.1-0.1,0.2,0,0.3c0,0.1,0,0.2,0.1,0.3l-0.2,0.2
		c-0.1,0.1-0.1,0.2-0.2,0.3h0c0.1-0.1,0.1-0.3,0.2-0.4l0-0.2c-0.1,0.2-0.1,0.3-0.2,0.5c-0.1,0.1-0.1,0.2,0,0.4l-0.1,0.1l-0.1,0.1
		c-0.1,0.1-0.2,0.2-0.2,0.3l0,0c0.1-0.1,0.2-0.2,0.3-0.4l0-0.2c-0.1,0.1-0.2,0.2-0.3,0.4c-0.1,0-0.1,0.1-0.1,0.3l-0.2,0.2l0,0
		l0.1-0.1l0-0.1c-0.1,0.1-0.3,0.2-0.2,0.3l-0.2,0.2l0.1-0.1l0-0.1l-0.2,0.1l0,0.1l-0.1,0.1l-0.1-0.1l0-0.1l-0.2-0.1l0,0.1l0.1,0.1
		l-0.2-0.2c0-0.1-0.1-0.2-0.2-0.3l0,0.1l0.1,0.1l0,0l-0.2-0.2c0-0.2,0-0.3-0.1-0.3c-0.1-0.1-0.2-0.2-0.3-0.4l0,0.2
		c0.1,0.1,0.2,0.2,0.3,0.4l0,0c-0.1-0.1-0.1-0.2-0.2-0.3l-0.1-0.1l-0.1-0.1c0.1-0.2,0-0.3,0-0.4c-0.1-0.2-0.1-0.3-0.2-0.5l0,0.2
		c0.1,0.2,0.1,0.3,0.2,0.4h0c-0.1-0.1-0.1-0.2-0.2-0.3l-0.2-0.2c0-0.1,0-0.2,0.1-0.3c0-0.1,0-0.2,0-0.3c0-0.1-0.1-0.2-0.1-0.3
		l-0.1,0.3c0,0.1,0.1,0.2,0.1,0.4c0,0.1,0,0.1,0,0c0-0.1-0.1-0.2-0.1-0.3l-0.1-0.2l0-0.2l0.1-0.2c0-0.2,0-0.4,0-0.6l-0.1,0.2
		c0,0.1,0,0.3,0,0.4c0,0.1,0,0.1,0,0c0-0.1,0-0.3,0-0.4l-0.1-0.3l-0.1,0.3c0,0.1,0.1,0.3,0.1,0.4l-0.1-0.1c0-0.2-0.1-0.4-0.1-0.4
		C138.2,105,138.1,104.8,138,104.8"/>
	<path class="st19" d="M138,104.8l-0.2,0c0,0.2,0.1,0.4,0.2,0.6l0,0.1l0.1,0.2l0,0l0.1,0l0.1,0.1l0.2-0.1l-0.2,0l0,0.2l0,0l0,0
		c0.1,0.1,0.1,0.2,0.2,0.4l0.2-0.1l0.1-0.2c-0.1-0.1-0.1-0.2-0.2-0.3l0,0l-0.2-0.1l-0.6-0.4l0.3,0.7c0.1,0.2,0.1,0.3,0.2,0.5l0,0.1
		l0.1,0c0.1,0.1,0.2,0.1,0.3,0.2l0.2-0.1l-0.2,0l0,0.2l0,0l0,0c0.1,0.1,0.2,0.2,0.2,0.3l0.2-0.1l0-0.2l0,0l0,0.2l0.2-0.1
		c-0.1-0.1-0.2-0.2-0.2-0.3l0,0l-0.3-0.1l-0.7-0.3l0.4,0.6c0.1,0.2,0.2,0.3,0.3,0.5l0,0l0.2,0.1l0,0l0.1,0l0,0.1l0,0l0,0
		c0.1,0.1,0.2,0.2,0.3,0.3l0.1-0.2l-0.2,0l0.2,0l-0.1-0.2l-0.1,0.1l0.2,0l-0.1-0.2l0.1,0.2l0-0.2l-0.1,0l0.1,0.2l0-0.2v0.2l0.1-0.1
		l-0.1,0v0.2l0.1-0.1l0,0l0,0l0,0l0,0l0,0c0,0-0.2-0.1-0.3-0.2l0,0l-0.2-0.1l-0.2,0.4c0.2,0.1,0.3,0.3,0.5,0.4l0,0l0.2,0.1l0.2,0.1
		l0.1-0.2l-0.1-0.2l0,0l0.1,0.2l0-0.2l0,0l-0.2,0l-0.7-0.1l0.5,0.5c0.1,0.1,0.2,0.2,0.4,0.2l0.1,0l-0.1-0.2l0.1,0.2l0.1,0l-0.1-0.2
		l-0.1,0.2l0.2,0.1l0.1-0.2l0.1-0.2c-0.1,0-0.1,0-0.2-0.1l-0.1,0l-0.1,0.2l0,0.1l0,0l0.2,0.1l0.1,0.1l0.1,0l0,0l0.1-0.2l-0.1,0.1
		l0,0l0.1-0.1l-0.1-0.2l-0.1,0.1l-0.3,0.2l0.4,0.2l0.1,0l0.2-0.1l0,0l-0.1-0.2l-0.1,0.2l0,0l0.1,0.1l0.1,0l0.2-0.1l0.4-0.1l-0.4-0.3
		l-0.1,0.2l0.1,0.2l0,0l-0.1-0.2l0.1,0.2l0.1-0.1l-0.1-0.2l-0.1,0.2l0.1,0l0.1,0l0.3-0.2l0,0l0,0l0-0.1l-0.1-0.2l-0.1,0
		c-0.1,0-0.1,0-0.2,0.1l0.1,0.2l0.1,0.2l0.2-0.1l-0.1-0.2l-0.1,0.2l0.1,0l0.1-0.2l-0.1,0.2l0.1,0c0.2,0,0.3-0.1,0.4-0.2l0.5-0.5
		l-0.8,0.2l0,0l0,0.2l0.1-0.2l0,0l-0.1,0.2l0.1,0.2l0.2-0.1l0.2,0l0,0l0,0c0.2-0.1,0.3-0.2,0.5-0.4l-0.2-0.4l-0.2,0l0,0l0,0
		l-0.2,0.2l-0.1,0l0,0l0.1,0.1v-0.1l-0.1,0l0.1,0.1v-0.1v0.2l0.1-0.1l-0.1,0v0.2l0.1-0.1l-0.1,0.1l0.2,0l-0.1-0.1l-0.1,0.1l0.2,0
		l-0.2,0l0.1,0.2c0.1-0.1,0.2-0.2,0.3-0.3l0,0l0-0.1l0.1,0l0.2-0.1l0.1,0l0,0c0.1-0.2,0.2-0.3,0.3-0.5l0.4-0.6l-0.9,0.4l-0.1,0l0,0
		c-0.1,0.1-0.2,0.2-0.2,0.3l0.2,0.1l0-0.2l0,0l0,0.2l0.2,0.1c0.1-0.1,0.2-0.2,0.2-0.3l0,0l0.1-0.3l-0.2,0l0.2,0.1
		c0.1-0.1,0.2-0.1,0.3-0.2l0.1,0l0-0.1c0.1-0.2,0.1-0.3,0.2-0.5l0.3-0.7l-0.8,0.5l0,0l0,0c-0.1,0.2-0.1,0.3-0.2,0.3l0.1,0.2l0.2,0.1
		c0.1-0.1,0.1-0.2,0.2-0.4l0,0l0-0.3l-0.2,0l0.2,0.1l0.1-0.1l0.1,0l0.1-0.2l0,0l0-0.1c0-0.2,0.1-0.4,0.2-0.6l0.1-0.3l-0.3,0.1
		c-0.1,0-0.2,0.1-0.2,0.2l0,0.1l0,0l0.1,0.1l-0.1-0.1l0,0l0.1,0.1l-0.1-0.1l0.2,0.1l-0.1-0.1l0,0l0.2,0.1l-0.1-0.1l0.1,0.1l-0.1-0.2
		l0,0l0.1,0.1l-0.1-0.2l0.1,0.2v-0.2l-0.1,0l0.1,0.2v-0.2v0.2l0.2-0.1l-0.2-0.1v0.2l0.2-0.1l-0.2,0.1h0.2l0-0.1l-0.2,0.1h0.2H143
		l0.2,0.1l0-0.1H143l0.2,0.1l-0.1,0l0.1,0l0,0l-0.1,0l0.1,0l0.1-0.3l-0.3,0l-0.1,0.1c-0.1,0.1-0.1,0.1-0.1,0.2c0,0.1,0,0.2-0.1,0.3
		l0.2,0l-0.1-0.2l-0.1,0.1l0.1,0.2l0.2,0c0-0.1,0.1-0.3,0.1-0.4l0-0.1l-0.1-0.3l-0.1-0.5l-0.4,0.7l0,0l0,0c0,0.1,0,0.3,0,0.4l0.2,0
		l-0.2-0.1l0,0l0.1,0l-0.1,0l0,0l0.1,0l-0.1,0l0.2,0.1l-0.1-0.1l0,0l0.2,0.1l-0.1-0.1l0.1,0.1v-0.2l-0.1,0.1l0.1,0.1v-0.2v0.2
		l0.2-0.1c0,0-0.1-0.1-0.2-0.1v0.2l0.2-0.1l-0.1,0.1l0.1,0l0,0l-0.1,0.1l0.1,0l0,0l-0.2,0l0.2,0c0-0.1,0-0.3,0-0.4l0-0.1l-0.1-0.2
		l-0.3-0.7l-0.1,0.8c0,0.2,0,0.4,0,0.6l0,0.1l0.1,0.2l0,0.1l-0.1,0.1l0,0l0,0c0,0.1-0.1,0.2-0.1,0.3l0.2,0.1l-0.2-0.1l0,0l0.1,0.1
		l-0.1-0.1l0,0l0.1,0.1l-0.1-0.1l0.2,0.1V106c-0.1,0-0.1,0.1-0.2,0.1l0.2,0.1V106v0.2l0.2-0.1c0,0-0.1-0.1-0.2-0.1v0.2l0.2-0.1
		l-0.2,0.1l0.2,0l0-0.1l-0.2,0.1l0.2,0l0,0h0l0,0l0,0h0l0,0l-0.2,0l0.2,0c0-0.1,0.1-0.2,0.1-0.4l0,0l-0.1-0.3l-0.4,0
		c0,0.1-0.1,0.2-0.1,0.3l0.2,0.1l-0.2-0.1c0,0.1-0.1,0.1-0.1,0.3l0,0.2l0.2-0.1l-0.2,0c0,0.1,0,0.2,0.1,0.3l0.2-0.1l-0.2-0.1
		l-0.2,0.2l0,0l0,0c-0.1,0.1-0.1,0.2-0.2,0.3l0.2,0.1v-0.2h0v0.2l0.2,0.1c0.1-0.1,0.1-0.3,0.2-0.4l0-0.1l-0.1-0.3l-0.1-0.6l-0.3,0.6
		c-0.1,0.2-0.1,0.3-0.2,0.5l0.2,0.1l-0.2-0.1c0,0.1-0.1,0.2-0.1,0.3l0.1,0.2l0.2-0.1l-0.2-0.1l0,0l-0.1,0l0,0l0,0
		c-0.1,0.1-0.2,0.2-0.2,0.3l0.2,0.1l0.1-0.2l0,0l-0.1,0.2l0.2,0.1c0.1-0.1,0.2-0.2,0.3-0.4l0,0l0-0.2l0.1-0.6l-0.4,0.5
		c-0.1,0.1-0.2,0.2-0.3,0.4l0.2,0.1l-0.1-0.2l-0.1,0.1c0,0.1-0.1,0.2-0.1,0.3l0,0.1l0.2,0l-0.1-0.2l-0.2,0.2l0.1,0.2l0.2,0.1l0,0
		l-0.2-0.1l0.1,0.1l0.1-0.1l0.1-0.1l0-0.2l0-0.4l-0.3,0.2l-0.2,0.2c-0.1,0.1-0.1,0.2-0.1,0.3l0,0.1l0.2,0l-0.1-0.2l-0.2,0.2l0.1,0.2
		l0.2,0.1l0.1-0.1l0,0l0-0.1l0-0.5l-0.5,0.4l-0.1,0l0,0.1l0,0l0.1,0.2l0.1-0.2l0,0l0,0l0-0.1l-0.2-0.2l-0.4-0.3l0,0.5l0,0.1l0.1,0.1
		l0.2-0.1l0.1-0.2l-0.2-0.2l-0.1,0.2l0.2,0l0-0.1c0-0.1-0.1-0.2-0.1-0.3l-0.2-0.2l-0.3-0.2l0,0.5l0,0.1l0.2,0.2l0.1-0.1l-0.2,0.1
		l0,0l0.2-0.1l0.1-0.2l-0.2-0.2l-0.1,0.2l0.2,0l0-0.1c0-0.1,0-0.2-0.1-0.3l-0.1-0.1l-0.1,0.2l0.2-0.1c-0.1-0.1-0.2-0.2-0.3-0.4
		l-0.4-0.5l0.1,0.8l0,0.1l0,0c0.1,0.1,0.2,0.2,0.3,0.4l0.2-0.1l-0.1-0.2l0,0l0.1,0.2l0.2-0.1c-0.1-0.1-0.2-0.2-0.2-0.3l0,0l-0.1,0
		l0,0l-0.2,0.1l0.2,0.1l0.1-0.3c0-0.1,0-0.2-0.1-0.3l-0.2,0.1l0.2-0.1c-0.1-0.2-0.1-0.3-0.2-0.5l-0.3-0.6l-0.2,0.8l0,0.1l0,0.1
		c0.1,0.2,0.1,0.3,0.2,0.4l0.2-0.1v-0.2h0v0.2l0.2-0.1c-0.1-0.1-0.1-0.2-0.2-0.3l0,0l-0.2-0.2l-0.2,0.1l0.2,0.1c0-0.1,0-0.2,0.1-0.3
		l-0.2-0.1l0.2,0.1l0-0.2c0-0.1,0-0.2-0.1-0.3l-0.2,0.1l0.2-0.1c0-0.1-0.1-0.2-0.1-0.3l-0.4,0l-0.1,0.3l0,0l0,0
		c0,0.1,0.1,0.2,0.1,0.4l0.2,0l-0.2,0l0,0l0,0l0.1,0l-0.1,0l0,0l0.1,0l-0.1,0l0.2,0.1l-0.2-0.1l0,0.1l0.2,0.1l-0.2-0.1l0.2,0.1V106
		l-0.2,0.1l0.2,0.1V106v0.2l0.2-0.1c0,0,0-0.1-0.2-0.1v0.2l0.2-0.1l-0.1,0.1l0.1,0l0,0l-0.1,0.1l0.1,0l0,0l-0.2,0.1l0.2-0.1
		c0-0.1-0.1-0.2-0.1-0.3l0,0l-0.1-0.2l0-0.1l0.1-0.2l0,0l0-0.1c0-0.2,0-0.4,0-0.6l-0.1-0.8l-0.4,0.9l0,0l0,0.1c0,0.1,0,0.3,0,0.4
		l0.2,0l-0.2,0l0,0l0,0l0.1,0l-0.1-0.1l0,0l0.1,0l-0.1-0.1l0.2,0.1l-0.1-0.1l0,0.1l0.2,0.1l-0.1-0.1l0.1,0.2l0-0.2l-0.1,0l0.1,0.2
		l0-0.2v0.2l0.2-0.1c0,0-0.1-0.1-0.2-0.1v0.2l0.2-0.1l-0.1,0.1l0.1-0.1l0,0l-0.1,0.1l0.1-0.1l0,0l-0.2,0.1l0.2,0c0-0.1,0-0.3,0-0.4
		l0,0l-0.2-0.3l-0.2-0.5l-0.2,0.8l0,0.1l0,0.1c0,0.1,0.1,0.3,0.1,0.4l0.2-0.1l0.1-0.2l-0.1-0.1l-0.1,0.2l0.2,0c0-0.1,0-0.2-0.1-0.3
		l0-0.1l0-0.1l-0.1-0.1l-0.3,0l0.1,0.3l0.1,0l-0.1,0l0,0l0.1,0l-0.1,0l0.2-0.1l-0.2,0l0,0.1l0.2-0.1l-0.2,0h0.2L138,104.8l0,0.2h0.2
		L138,104.8l0.2,0.2v-0.2L138,104.8l0.2,0.2v-0.2v0.2l0.1-0.2l-0.1,0v0.2l0.1-0.2l-0.1,0.2l0.2-0.1l0,0l-0.1,0.2l0.2-0.1l0,0l0,0
		l0,0l0,0l0,0c0,0-0.1-0.2-0.3-0.2l-0.3-0.1l0.1,0.4L138,104.8L138,105l0,0l0,0l0,0l0,0l0,0l0,0l0,0l0,0l0,0l0,0l0,0l0.1,0l0.2-0.1
		l0-0.1l0-0.1l0,0l-0.2,0.1l0,0.2l0-0.2l-0.1,0.1l0.1,0.1l0-0.2l-0.1,0.1l0.1-0.1L138,105l0,0l0.1-0.1L138,105l0,0l0,0l0,0l0,0l0,0
		c0,0,0,0.1,0.1,0.3l0,0.1l0.1,0.1l0.5,0.4l-0.1-0.6c0-0.1-0.1-0.3-0.1-0.4l-0.2,0l0.2,0.1l0.1-0.3l-0.2-0.1l-0.2,0.1l0.1,0.3
		l0.2-0.1l-0.2,0c0,0.1,0,0.3,0,0.4l0,0l0,0l0,0.1l0,0.1c0,0,0.1,0.1,0.2,0.1c0.1,0,0.2-0.1,0.2-0.1l0-0.2l0,0l0,0
		c0-0.1,0-0.3,0-0.4l-0.2,0l0.2,0.1l0.1-0.2l-0.2-0.1l-0.2,0c0,0.2,0,0.4,0,0.6l0.2,0l-0.2-0.1l-0.1,0.2l0,0l0,0.2l0,0.1l0.1,0.2
		l0.2-0.1l-0.2,0.1c0,0.1,0.1,0.2,0.1,0.3l0,0l0,0l0,0.1l0,0c0,0,0,0.1,0.2,0.1c0.1,0,0.2-0.1,0.2-0.1l0-0.1l0,0l0,0l0,0l0,0
		c0-0.1-0.1-0.2-0.1-0.4l-0.2,0l0.2,0l0.1-0.3l-0.2,0l-0.2,0.1c0,0.1,0.1,0.2,0.1,0.3l0,0l0,0l0,0.1h0l0,0l0,0h0l0,0l0,0l0,0
		c0,0.1,0,0.2-0.1,0.3l0,0.1l0.2,0.3l0.2-0.1l-0.2,0.1c0.1,0.1,0.1,0.2,0.2,0.3l0.1,0.1h0.2h0.3l-0.1-0.3c-0.1-0.1-0.1-0.3-0.2-0.4
		l-0.2,0.1l0.2,0l0-0.2l-0.2,0l-0.2,0.1c0.1,0.1,0.1,0.3,0.2,0.5l0,0l0,0l0,0.1l0,0.1l0,0.1l0.1,0.2l0,0.1l0.2,0.1l0.1-0.2l-0.2,0.1
		l0.2,0.3l0.1,0.1l0.2,0l0.3-0.1l-0.2-0.2c-0.1-0.1-0.2-0.2-0.3-0.4l-0.2,0.1l0.2,0l0-0.2l-0.2,0l-0.2,0.1c0.1,0.1,0.2,0.2,0.3,0.4
		l0,0l0,0l0,0l0,0l0,0.1l0,0l0,0.1l0.3,0.3l0.5,0.5l-0.2-0.7l0-0.1l-0.1-0.1l0,0l-0.2,0l-0.1,0.2l0.1,0.1l0,0l0,0h0l0,0l0,0h0h0l0,0
		l0,0h0l0,0l0,0.1l0.3,0.2l0.3-0.3l0,0l0,0l-0.2,0l-0.1,0.2l0.1,0.1l0,0.1l0,0.1l0.2,0.1l0.1,0.1l0.2-0.2l0.1,0l0-0.1l0.1-0.1
		l-0.1-0.2l-0.2,0l0,0l0,0l0.3,0.3l0.2-0.2l0.1-0.1l0-0.1l0,0h0l0,0l0,0h0h0l0,0l0,0h0l0,0l0.2-0.1l-0.1-0.2l-0.2,0l0,0l0,0l0,0
		l0,0.1l-0.2,0.7l0.8-0.7l0-0.1l0,0l0-0.1l0,0l0,0l0,0l0,0l0,0l0,0l0,0l0,0c0.1-0.1,0.2-0.2,0.3-0.4l-0.2-0.1l-0.2,0l0,0.2l0.2,0
		l-0.2-0.1c-0.1,0.1-0.2,0.2-0.3,0.4l-0.2,0.2l0.3,0.1l0.1,0l0.1-0.1l0.2-0.3l-0.2-0.1l0.1,0.2l0.1-0.1l0.1,0l0.1-0.2l0-0.1l0-0.1
		l0-0.1l0-0.1l0,0l0,0c0.1-0.2,0.1-0.3,0.2-0.5l-0.2-0.1l-0.2,0l0,0.2l0.2,0l-0.2-0.1c-0.1,0.2-0.1,0.3-0.2,0.4l-0.1,0.3h0.3h0.1
		l0.1-0.1c0-0.1,0.1-0.2,0.2-0.3l-0.2-0.1l0.2,0.1l0.2-0.2l0.1-0.1l0-0.1c0-0.1,0-0.2-0.1-0.3l0,0l0,0l0,0h0l0,0l0,0h0l0-0.1l0,0
		l0,0c0-0.1,0.1-0.2,0.1-0.3l-0.2-0.1l-0.2,0l0.1,0.3l0.2,0l-0.2,0c0,0.1-0.1,0.2-0.1,0.4l0,0l0,0l0,0l0,0.1l0,0.1
		c0,0,0.1,0.1,0.2,0.1c0.1,0,0.2-0.1,0.2-0.1l0.1-0.1l0,0l0,0c0-0.1,0.1-0.2,0.1-0.3l-0.2-0.1l0.2,0.1l0.1-0.2l0,0l0-0.2l0-0.1
		l-0.1-0.3l-0.2,0.1l0.2,0c0-0.2,0-0.4,0-0.6l-0.2,0l-0.2,0.1l0.1,0.2l0.2-0.1l-0.2,0c0,0.1,0,0.3,0,0.4l0,0l0,0l0,0.1l0,0.1
		c0,0,0.1,0.1,0.2,0.1c0.1,0,0.1-0.1,0.2-0.1l0.1-0.1l0,0l0,0c0-0.1,0-0.3,0-0.4l-0.2,0l0.2,0.1l0.1-0.3l-0.2-0.1l-0.2,0.1l0.1,0.3
		l0.2-0.1l-0.2,0c0,0.1-0.1,0.3-0.1,0.4l-0.1,0.6l0.5-0.4l0.1-0.1l0-0.1c0-0.1,0-0.2,0.1-0.3l0,0l0,0l-0.1,0l0.1,0.1l0,0l-0.1,0
		l0.1,0.1l-0.1-0.1l0,0.2l0.1-0.1l-0.1-0.1l0,0.2l0-0.2l-0.2-0.1l0,0l0,0.1l0,0.1l0.2,0.1l0.1,0l0,0l0-0.1l0,0l0,0l0,0l0,0l0,0l0,0
		l0,0l-0.1-0.2l-0.2,0c0,0.1-0.1,0.4-0.2,0.6l0.2,0l-0.2-0.1l-0.1,0.1l0.2,0.1l-0.1-0.2c-0.1,0.1-0.2,0.2-0.3,0.2l0,0.1l0,0.3l0.2,0
		l-0.2-0.1c-0.1,0.1-0.1,0.2-0.2,0.4l0.3,0.2c0.2-0.2,0.2-0.4,0.3-0.4l-0.2-0.1l0.1,0.2l0.2-0.1l-0.1-0.2l-0.2-0.1
		c-0.1,0.2-0.1,0.3-0.2,0.5l0.2,0.1l-0.1-0.2c-0.1,0.1-0.2,0.2-0.4,0.3l0,0l-0.1,0.3l0.2,0l-0.2-0.1c-0.1,0.1-0.2,0.2-0.2,0.3
		l-0.2,0.3l0.4,0.1l0.1,0l0.1-0.1c0.1-0.1,0.2-0.2,0.2-0.3l-0.2-0.1l0.1,0.2l0.2-0.1l-0.1-0.2l-0.2-0.1c-0.1,0.2-0.2,0.3-0.3,0.5
		l0.2,0.1l-0.1-0.2l-0.2,0.1l-0.2,0.1l-0.1,0l-0.1,0.2l0.2,0.1l-0.1-0.2c-0.1,0.1-0.2,0.2-0.3,0.3l-0.1,0.1l0,0.1l0.1,0.1l0.1,0
		c0.1,0,0.1,0,0.2-0.1c0.1-0.1,0.2-0.2,0.3-0.2l-0.1-0.2l0,0.2l0.2,0l0-0.2l-0.1-0.2c-0.2,0.2-0.3,0.3-0.4,0.3l0.1,0.2l0-0.2
		l-0.2,0.1l0,0l-0.2,0.2l-0.2,0.2l0.3,0.2l0,0l0.1,0l0,0l0.2,0l0-0.2l-0.1-0.1l-0.1,0.1l0,0l0,0.1v-0.1l0,0l0,0.1v-0.1v0.1l0-0.1
		l0,0v0.1l0-0.1l0,0l-0.1,0l-0.1,0l-0.3,0.2l0.2,0.4l0.1,0l0,0l0-0.1l0,0.1l0,0l0-0.1l0,0.1v-0.2l-0.1,0.2l0.1,0v-0.2l-0.1,0.2
		l0.1-0.2h-0.2l0.1,0.2l0.1-0.2h-0.2h0.2l-0.1-0.1l0,0.1h0.2l-0.1-0.1l0.2,0.1l-0.1-0.2l-0.2,0.1l0.1,0.2l0.1-0.2l-0.1,0l-0.1,0
		l-0.2,0.1l0,0l0,0l-0.3,0.2l0.4,0.3l0.1-0.2l-0.1-0.2l-0.1,0l0.1,0.2l0.1-0.2l-0.1-0.1l0,0l0,0l-0.1-0.1l-0.1,0.1l0,0l-0.1,0.1
		l0.1,0.2l0.1-0.2l-0.1,0l-0.1,0.2l0.1,0.2l0.1-0.1l0.2-0.1l-0.2-0.2l0,0l-0.1-0.1l-0.1,0l-0.1,0l-0.1-0.1l-0.1,0.2l0.2-0.1
		l-0.1,0.1h0.2l0-0.1l-0.1,0.1h0.2h-0.2l0.1,0.2l0.1-0.2h-0.2l0.1,0.2l-0.1-0.2l0,0.2l0.1,0l-0.1-0.2l0,0.2v-0.1l0,0.1l0,0v-0.1
		l0,0.1l0.1,0l0.2-0.4l-0.2-0.1l-0.1-0.1l-0.2,0l0,0l0,0l0,0.1v-0.1l0,0l0,0.1v-0.1v0.1l0-0.1l0,0v0.1l0-0.1l-0.1-0.1l-0.1,0.1
		l0,0.2l0.2,0l0,0l0,0l0.1,0l0.1,0l0.3-0.1l-0.4-0.4l0,0l-0.3-0.1l0,0.2l0.1-0.2c-0.1-0.1-0.2-0.2-0.4-0.3l-0.1,0.2l0,0.2l0.2,0
		l0-0.2l-0.1,0.2l0.2,0.1l0.1,0.1c0,0,0.1,0.1,0.2,0.1l0.1,0l0.1-0.1l0-0.1l-0.1-0.1c-0.1-0.1-0.2-0.2-0.3-0.3l-0.1,0.2l0.2-0.1
		l-0.1-0.1l0-0.1l-0.3-0.1l0,0L139,107l-0.1,0.2l0.2-0.1c-0.1-0.2-0.2-0.3-0.3-0.5l-0.2,0.1l-0.1,0.2l0.2,0.1l0.1-0.2l-0.2,0.1
		c0.1,0.1,0.2,0.2,0.2,0.3l0.1,0.1l0.2,0l0.3,0l-0.2-0.3c-0.1-0.1-0.2-0.2-0.2-0.3l-0.2,0.1l0.2,0l0-0.2l0-0.1l0,0
		c-0.1-0.1-0.2-0.2-0.4-0.3l-0.1,0.2l0.2-0.1c-0.1-0.2-0.1-0.3-0.2-0.5l-0.2,0.1l-0.1,0.2l0.2,0.1l0.1-0.2l-0.2,0.1
		c0.1,0.1,0.1,0.3,0.3,0.4l0.3-0.2c-0.1-0.1-0.1-0.2-0.2-0.4l-0.2,0.1l0.2,0l0-0.2l0-0.1l0-0.1c0,0-0.1-0.2-0.3-0.2l-0.1,0.2
		l0.2-0.1l-0.1-0.1l-0.2,0.1l0.2,0c0-0.2-0.1-0.5-0.2-0.6L138,104.8L138,105L138,104.8z"/>
	<polygon class="st20" points="140.4,106.6 140.4,106.6 140.4,106.6 140.4,106.6 140.4,106.7 140.5,106.6 140.5,106.6 140.5,106.6 
		140.5,106.7 140.9,106.9 141,106.9 141.9,107.1 141.9,107.1 141.9,107 142,106.7 140.9,106.6 140.6,106.5 140.6,106.5 140.4,106.5 
		140.4,106.5 	"/>
	<polygon class="st21" points="140.4,106.6 140.4,106.6 140.4,106.6 140.4,106.6 140.4,106.7 140.5,106.6 140.5,106.6 140.5,106.6 
		140.5,106.7 140.9,106.9 141,106.9 141.9,107.1 141.9,107.1 141.9,107 142,106.7 140.9,106.6 140.6,106.5 140.6,106.5 140.4,106.5 
		140.4,106.5 	"/>
	<polygon class="st19" points="140.4,106.6 140.3,106.8 140.3,106.8 140.4,106.9 140.5,106.8 140.6,106.8 140.6,106.6 140.4,106.6 
		140.2,106.6 140.2,106.7 140.6,106.7 140.7,106.6 140.5,106.6 140.3,106.6 140.3,106.6 140.2,107.1 140.7,106.7 140.5,106.6 
		140.4,106.5 140.3,106.6 140.1,106.8 140.8,107.1 140.8,107.1 140.9,107.1 141.9,107.3 142.2,107.4 142.1,107.1 142.1,107 
		142.2,106.7 142.3,106.5 141,106.4 140.7,106.3 140.7,106.3 140.6,106.3 140.5,106.3 140.4,106.3 140.4,106.3 140.3,106.3 
		140.2,106.4 140.1,106.6 140.1,106.7 140.3,106.8 140.4,106.6 140.6,106.6 140.6,106.5 140.4,106.5 140.4,106.7 140.5,106.7 
		140.6,106.7 140.6,106.7 140.6,106.5 140.5,106.6 140.9,106.8 140.9,106.8 141.7,106.9 141.7,106.9 141.7,106.9 141.7,107 
		141.7,107.1 141.7,107.2 141.9,107.1 142,106.9 141,106.7 141,106.7 140.9,106.7 140.5,106.5 140.5,106.7 140.6,106.8 140.7,106.7 
		140.4,106.4 140.3,106.5 140.5,106.6 140.7,106.7 140.7,106.6 140.3,106.5 140.2,106.6 140.4,106.7 140.7,106.6 140.6,106.5 
		140.2,106.5 140.2,106.6 140.4,106.6 140.3,106.4 140.3,106.4 140.4,106.6 140.5,106.5 140.4,106.4 140.4,106.6 140.6,106.6 	"/>
	<polygon class="st22" points="140.3,106.6 140.5,106.6 140.5,106.6 140.5,106.6 140.6,106.6 140.8,106.8 140.9,106.9 140.9,106.9 
		140.9,106.9 140.9,106.9 140.9,106.9 140.9,106.9 140.9,106.9 140.9,107 140.8,106.9 140.6,106.8 140.8,106.9 140.8,106.9 
		140.8,107 140.8,107 140.8,107 140.8,107 140.8,107 140.8,107 140.8,107 140.8,107 140.8,107 140.8,107 140.8,107 140.8,107 
		140.8,107 140.6,106.8 140.8,107 140.8,107 140.8,107 140.8,107 140.8,107 140.8,107 140.8,107 140.7,107 140.7,107 140.7,107.1 
		140.7,107.1 140.5,106.9 140.7,107 140.7,107.1 140.7,107.1 140.7,107.1 140.7,107.1 140.6,107.1 140.5,107 140.3,106.9 
		140.2,106.9 139.3,107.1 139.3,107 139.2,106.7 	"/>
	<polygon class="st19" points="140.3,106.6 140.3,106.8 140.4,106.8 140.4,106.8 140.5,106.8 140.6,106.8 140.6,106.8 140.5,106.6 
		140.5,106.8 140.5,106.8 140.6,106.9 140.7,107 140.7,107 140.7,107 140.9,106.9 140.7,106.9 140.7,107 140.9,106.9 140.8,106.7 
		140.8,106.8 140.7,106.8 140.7,106.9 140.7,106.9 140.9,106.9 140.7,106.8 140.7,106.8 140.9,106.9 140.8,106.8 140.8,106.8 
		140.9,107 140.9,106.7 140.9,106.7 140.8,106.9 141,106.8 140.8,106.6 140.5,106.9 140.7,107.1 140.8,106.9 140.7,107.1 
		140.7,107.1 140.7,107.1 140.7,107.1 140.8,107 140.7,107.1 140.7,107.1 140.8,107 140.6,107 140.6,107 140.8,107 140.8,106.8 
		140.8,106.8 140.6,106.8 140.6,107 140.8,107 140.7,106.8 140.7,106.8 140.8,107 140.8,106.8 140.8,106.8 140.6,106.8 140.6,107 
		140.8,107 140.7,106.8 140.7,106.8 140.8,107 140.8,106.8 140.8,106.8 140.8,106.8 140.7,106.8 140.6,107 140.8,107 140.8,106.8 
		140.8,106.8 140.8,107 140.9,106.9 140.7,106.7 140.4,107 140.6,107.2 140.8,107 140.6,107 140.6,107.1 140.8,107 140.8,106.8 
		140.8,106.8 140.6,106.8 140.6,107 140.8,107 140.6,106.9 140.6,106.9 140.8,107 140.8,106.8 140.8,106.8 140.5,106.8 140.5,107 
		140.8,107 140.6,106.9 140.6,106.9 140.7,107 140.7,106.8 140.7,106.8 140.5,106.8 140.5,107.1 140.7,107.1 140.7,106.8 
		140.7,106.8 140.7,107.1 140.8,106.9 140.6,106.8 140.4,107.1 140.5,107.2 140.7,107 140.5,107 140.5,107.1 140.7,107.1 
		140.7,106.9 140.7,106.9 140.5,106.9 140.5,107.1 140.7,107.1 140.5,107 140.5,107 140.7,107.1 140.7,106.9 140.6,106.9 
		140.6,107.1 140.7,106.9 140.6,106.8 140.6,106.8 140.4,106.7 140.4,106.7 140.3,106.7 140.2,106.6 139.3,106.9 139.3,107.1 
		139.5,107.1 139.5,107 139.5,106.9 139.5,106.9 140.4,106.8 140.3,106.6 140.3,106.8 140.3,106.6 140.3,106.4 139.2,106.5 
		138.9,106.5 139.1,107 139.1,107.1 139.1,107.4 140.3,107.1 140.2,106.9 140.1,107 140.2,107.1 140.4,107.2 140.5,107.3 
		140.6,107.3 140.7,107.3 140.8,107.3 140.8,107.2 140.9,107.1 140.9,107.1 140.7,107.1 140.7,107.3 140.7,107.3 140.9,107.3 
		140.9,107 140.9,106.9 140.7,106.8 140.5,106.9 140.4,107.1 140.6,107.2 140.7,107.3 140.7,107.3 140.9,107.3 140.9,107 140.7,107 
		140.7,107.3 140.7,107.3 140.9,107.3 140.9,107.2 141,107.1 141,107 140.8,107 140.8,107.2 140.8,107.2 140.8,107.2 140.9,107.2 
		141,107.1 141,107 140.8,107 140.8,107.2 140.8,107.2 141,107.2 141,107 141,106.9 140.7,106.7 140.6,106.8 140.4,107 140.7,107.2 
		140.7,107.2 140.8,107.2 141,107.2 141,107 140.8,107 140.8,107.2 140.8,107.2 140.8,107.2 140.9,107.2 141,107.2 141,107.1 
		141,107 140.8,107 140.8,107.2 140.8,107.2 140.9,107.2 141,107.1 141,107.1 141,107 140.8,107 140.8,107.2 140.8,107.2 
		141.1,107.2 141,106.9 141,106.8 141,106.8 141,106.8 141,106.8 140.8,106.9 141,106.8 141,106.8 141,106.8 140.8,106.6 
		140.5,106.9 140.7,107.1 140.8,107.1 140.8,107.2 140.9,107.2 141,107.1 141,107.1 141,107.1 141.1,107 141.1,106.9 141.1,106.9 
		140.9,106.9 141,107.1 141,107.1 141.1,107 141.1,106.9 141.1,106.8 141,106.7 141,106.7 141,106.6 140.7,106.5 140.7,106.4 
		140.6,106.4 140.5,106.4 140.5,106.4 140.4,106.4 140.5,106.6 140.5,106.4 140.4,106.4 140.4,106.4 140.3,106.4 	"/>
	<polygon class="st20" points="140.3,106.9 140.5,107 140.5,107 140.5,107 140.4,107 140.4,107 140.4,107 140.4,107 140.4,107 
		140.4,107 140.4,107 140.4,107 140.4,107 140.3,107 140.3,106.9 140.3,106.9 140.3,106.9 	"/>
	<polygon class="st19" points="140.3,106.9 140.2,107.1 140.4,107.2 140.5,107 140.4,106.8 140.4,106.9 140.5,107 140.4,106.8 
		140.4,106.8 140.4,106.8 140.4,107 140.6,106.9 140.6,106.9 140.4,107 140.6,107 140.6,107 140.4,107 140.6,107.1 140.6,107.1 
		140.3,106.8 140.3,106.9 140.4,107 140.4,106.8 140.4,106.8 140.4,107 140.5,106.8 140.5,106.8 140.4,107 140.5,106.9 140.5,106.9 
		140.4,107 140.6,107 140.6,107 140.6,106.7 140.3,106.8 140.3,107 140.5,106.8 140.4,106.8 140.3,106.9 140.5,106.8 140.5,106.8 
		140.3,106.9 140.5,106.9 140.5,106.9 140.3,106.9 140.5,107 140.5,106.9 140.3,106.9 140.2,107.1 140.3,106.9 140.1,106.8 
		140.1,106.9 140.1,106.9 140.1,106.9 140.1,107 140.2,107.1 140.2,107.1 140.2,107.1 140.3,107.2 140.4,107.1 140.4,107 140.2,107 
		140.2,107 140.2,107 140.2,107.1 140.2,107.1 140.3,107.2 140.3,107.2 140.4,107.2 140.5,107.2 140.6,107.1 140.4,107 140.2,106.9 
		140.2,106.9 140.2,107 140.2,107 140.2,107.1 140.3,107.2 140.4,107.3 140.5,107.2 140.5,107.2 140.6,107.2 140.6,107.2 
		140.6,107.2 140.9,107 140.4,106.7 140.2,106.6 140.1,106.8 	"/>
	<polygon class="st23" points="142.3,103 138.7,103 137.6,102.6 139.4,102.7 137.9,101.7 139.7,102.5 138.7,101 139.9,102.2 
		139.5,100.3 140.3,102 140.5,100.2 140.7,102 141.6,100.3 141.1,102.1 142.5,100.8 141.5,102.3 143.2,101.6 141.7,102.7 
		143.4,102.6 	"/>
	<polygon class="st21" points="142.3,103 138.7,103 137.6,102.6 139.4,102.7 137.9,101.7 139.7,102.5 138.7,101 139.9,102.2 
		139.5,100.3 140.3,102 140.5,100.2 140.7,102 141.6,100.3 141.1,102.1 142.5,100.8 141.5,102.3 143.2,101.6 141.7,102.7 
		143.4,102.6 	"/>
	<polygon class="st24" points="142.3,103 142.3,102.7 138.7,102.7 137.7,102.4 137.6,102.6 137.6,102.8 140.1,103 138,101.5 
		137.9,101.7 137.8,101.9 140.2,102.9 138.9,100.9 138.7,101 138.5,101.1 140.3,102.9 140.1,102.1 140.1,102.1 140.4,102.8 
		140.7,100.2 140.5,100.2 140.3,100.2 140.6,102.7 140.9,102.1 140.9,102.1 140.8,102.8 142.7,101 142.5,100.8 142.3,100.7 
		140.9,102.8 141.7,102.5 141.6,102.5 141.1,102.9 143.4,102.8 143.4,102.6 143.3,102.4 142.3,102.8 142.3,103 142.3,102.7 
		142.3,103 142.4,103.1 143.4,102.8 143.4,102.4 142.4,102.4 143.3,101.8 143.1,101.4 142.1,101.9 142.7,100.9 142.4,100.7 
		141.5,101.5 141.8,100.3 141.4,100.2 140.9,101.3 140.7,100.2 140.3,100.2 140.2,101.3 139.7,100.2 139.3,100.4 139.6,101.6 
		138.8,100.8 138.5,101.1 139.1,102 138,101.5 137.8,101.8 138.7,102.5 137.7,102.4 137.6,102.8 138.6,103.2 142.4,103.2 
		142.4,103.1 	"/>
	<path class="st22" d="M141.7,103.9l0-0.2l0.6,0.2L141.7,103.9z M141.6,103.9v-0.3c-0.2-0.1-0.4-0.1-0.6,0c0,0.1,0.1,0.2,0.2,0.3
		L141.6,103.9 M140.8,104l0.7,0l-0.2-0.1l0.3,0l0,0.3l-0.8,0L140.8,104z M140.3,104l0.5,0l0,0.2l-0.8,0l0-0.1L140.3,104L140.3,104z
		 M140.8,103.8l0.4,0.2l-0.4,0V103.8z M140.1,103.7c0,0.1,0,0.2,0.1,0.3l0.5,0v-0.2C140.5,103.6,140.3,103.6,140.1,103.7
		 M140.8,102.8l0.1,0.1l-0.1,0L140.8,102.8z M140.3,102.9c-0.1-0.1-0.1-0.1-0.2-0.2c0.2-0.1,0.4-0.1,0.6,0l0,0.2L140.3,102.9z
		 M139.9,103l0.4,0c-0.1-0.1-0.2-0.2-0.4-0.2L139.9,103z M139.9,104l0.4,0l-0.4-0.2L139.9,104z M139.8,104l0-0.2
		c-0.1-0.1-0.3-0.1-0.4-0.1c-0.2,0-0.2,0.2,0,0.3L139.8,104z M139.8,103l0-0.2c-0.2,0-0.3,0-0.3,0.2l0,0L139.8,103z M139.5,102.9
		l0.1,0.2l-0.1,0l0,0l0.2,0c-0.4,0.2-0.4,0.5-0.3,0.9h-0.1C139.1,103.6,139.1,103.2,139.5,102.9 M138.9,103.5l0.6-0.6l0-0.1
		C139.1,102.9,138.9,103.2,138.9,103.5 M139.5,102.5c-0.4,0.3-0.6,0.5-0.7,0.7l0.7-0.5L139.5,102.5z M137.5,103.7
		c0.4-0.3,1.1-0.4,0.6,0c0.4-0.2,0.5-0.1,0.6,0l-0.2,0.2c0.5-0.4,0.7,0,0.7,0.1l0.7,0v0.1C138.7,104.1,138.2,103.9,137.5,103.7
		 M138.8,104.5c1.4,0.1,2.6,0,3.9,0c0.1-0.1,0.2-0.2,0.3-0.2l0.2-0.3l-1.4,0.2l0-0.2l1,0l0.1,0v0l-0.2,0c-0.5-0.3-0.6-0.8-0.3-1
		l0.2,0l0-0.1l-0.3,0c-0.2-0.3-0.2-0.6,0-0.8l0.2,0l0-0.1l-0.6,0.1l0-0.2l0.3,0l0-0.1l-0.3,0l0-0.3h-0.1l0,0.2l-0.3,0l0,0.1l0.3,0
		l0,0.2l-0.3,0l0,0.1l0.1,0c-0.2,0.1-0.3,0.2-0.4,0.4c0-0.2,0.3-0.6,0.5-0.5v0c-0.2,0-0.4,0-0.6,0.1l0-0.2h0.3l0-0.1l-0.3,0l0-0.3
		l-0.1,0l0,0.3l-0.3,0l0,0.1l0.3,0v0.2l-0.3,0l0,0.1l0,0.1c-0.1,0.1-0.2,0.2-0.3,0.3c0-0.1,0.1-0.3,0.3-0.4l-0.4,0.1l0-0.2l0.3,0
		l0-0.1l-0.3,0v-0.2l-0.1,0l0,0.2h-0.4l0.1,0.1l0.3,0l0,0.2l-0.3,0l0.1,0l-0.2,0.2l-2.1,1.2l0,0l0,0l0.9,0.3
		C138.5,104.2,138.7,104.3,138.8,104.5 M141,102.8l0.7,0l0-0.2c-0.3-0.1-0.6-0.1-0.7,0.1L141,102.8 M141.7,102.8l0-0.2l0.4,0.2
		L141.7,102.8z"/>
	<path class="st19" d="M141.7,103.9l0.2,0l0-0.2l-0.2,0L141.7,103.9l0.5,0.2l0.1-0.2l0-0.2l-0.6,0L141.7,103.9l0.2,0L141.7,103.9
		l0,0.2l0.6,0l0.1-0.4l-0.6-0.2l-0.3-0.1l0,0.6l0,0.2l0.2,0L141.7,103.9z M141.6,103.9h0.2v-0.3v-0.1l-0.1-0.1
		c-0.1-0.1-0.3-0.1-0.4-0.1c-0.1,0-0.2,0-0.3,0l-0.2,0.1l0,0.2c0,0.1,0.1,0.3,0.2,0.4l0.1,0.1l0.5,0l0.2,0v-0.2H141.6l0-0.2l-0.4,0
		l0,0.2l0.1-0.2l-0.1-0.2l-0.2,0l0.1,0.2l0.2,0C141.3,103.7,141.4,103.8,141.6,103.9v-0.3h-0.2v0.3H141.6l0-0.2L141.6,103.9z
		 M140.8,104l0,0.2l0.7,0l0.8,0l-0.8-0.5l-0.1,0.2l0,0.2l0.1,0l0,0l0.2,0l0-0.2L140.8,104l0,0.2l0.2,0l0-0.2L140.8,104l0,0.2
		L140.8,104l-0.2,0l0,0.2l0,0.2l1.1,0l0.2,0l0-0.5l0-0.2l-0.6,0l-0.7,0l0.8,0.5l0.1-0.2l0-0.2l-0.7,0l-0.2,0l0,0.2L140.8,104z
		 M140.3,104l0,0.2l0.5,0l0-0.2l-0.2,0l0,0.2l0.2,0l0-0.2l-0.8,0l0,0.2l0.2,0l0-0.1l-0.2,0l0,0.2l0.4,0l0.5,0l-0.4-0.4L140.3,104
		l0,0.2L140.3,104l-0.2,0.1l0.1,0.1L140.3,104l0.1-0.1l-0.4,0l-0.2,0l0,0.3l0,0.2l1.1,0l0.2,0l0-0.4l0-0.2l-0.7-0.1l-0.5,0l0.3,0.4
		L140.3,104z M140.8,103.8l-0.1,0.2l0.4,0.2l0.1-0.2l0-0.2l-0.2,0v0H140.8l-0.1,0.2L140.8,103.8h-0.2v0.2v0.2l0.6,0l0.1-0.4
		l-0.4-0.2l-0.3-0.2v0.3H140.8z M140.1,103.7l-0.2,0c0,0.1,0.1,0.3,0.2,0.4l0.1,0.1l0.6,0l0.2,0v-0.4v-0.1l-0.1-0.1
		c-0.2-0.1-0.3-0.1-0.5-0.1c-0.1,0-0.2,0-0.3,0.1l-0.1,0.1l0,0.1L140.1,103.7l0.1,0.2l0.1,0c0.1,0,0.2,0,0.3,0.1l0.1-0.2h-0.2v0.2
		h0.2l0-0.2l-0.5,0l0,0.2l0.2-0.1l-0.1-0.1L140.1,103.7l0.1,0.2L140.1,103.7z M140.8,102.8l-0.1,0.2l0.1,0.1l0.1-0.2l0-0.2
		L140.8,102.8l0,0.1l0.2,0l0-0.1L140.8,102.8l-0.1,0.2L140.8,102.8l-0.2,0l0,0.1l0,0.2l0.3,0l0.5,0l-0.5-0.5l-0.4-0.3l0,0.5
		L140.8,102.8z M140.3,102.9l0.1-0.2l-0.1-0.1l-0.2,0L140.3,102.9l0.1-0.1l0.2,0.1l0.1-0.2l-0.2,0l0,0.2l0.2,0l0-0.2l-0.4,0
		L140.3,102.9l0.1-0.2L140.3,102.9l0,0.2l0.4,0l0.2,0l0-0.4l0-0.1l-0.1-0.1c-0.1-0.1-0.3-0.1-0.4-0.1c-0.1,0-0.2,0-0.3,0.1l-0.2,0.1
		l0,0.2c0,0.1,0.1,0.3,0.2,0.4l0.1,0l0.1,0L140.3,102.9z M139.9,103l0,0.2l0.4,0l0.5,0l-0.3-0.3c-0.1-0.1-0.3-0.2-0.5-0.3l-0.2,0
		l0,0.4l0,0.2l0.2,0L139.9,103l0.2,0l0-0.2l-0.2,0L139.9,103c0.1,0,0.2,0.1,0.2,0.1l0.2-0.1l0-0.2l-0.4,0L139.9,103l0.2,0L139.9,103
		z M139.9,104l0,0.2l0.4,0l0.1-0.4l-0.4-0.2l-0.3-0.2l0,0.6l0,0.2l0.2,0L139.9,104l0.2,0l0-0.2l-0.2,0l-0.1,0.2l0.4,0.2l0.1-0.2
		l0-0.2l-0.4,0L139.9,104l0.2,0L139.9,104z M139.8,104l0.2,0l0-0.2l0-0.1l-0.1-0.1c-0.1-0.1-0.3-0.1-0.4-0.1l-0.1,0l0,0l0,0
		c-0.1,0-0.3,0.2-0.3,0.3c0,0.2,0.2,0.3,0.3,0.3l0,0l0.4,0l0.2,0l0-0.2L139.8,104l0-0.2l-0.4,0l0,0.2l0-0.2l0,0l0,0.1h0.1l0-0.1
		l0,0.1h0.1h-0.1l0.1,0.1l0-0.1h-0.1l0.1,0.1l0,0l0,0l0,0l0,0l0,0l0-0.2l0,0.2l0,0C139.6,104,139.6,104,139.8,104l0-0.2l-0.2,0
		l0,0.2L139.8,104l0-0.2L139.8,104z M139.8,103l0.2,0l0-0.2l0-0.2l-0.2,0c-0.1,0-0.2,0-0.3,0.1c-0.1,0-0.2,0.2-0.2,0.3l0,0l0,0.1
		l0.1,0.1l0.1,0.1l0.3,0l0.2,0l0-0.2L139.8,103l0-0.2l-0.2,0l0,0.2l0.2-0.1l0,0l-0.2,0.1L139.8,103L139.8,103L139.8,103L139.8,103
		L139.8,103L139.8,103l-0.2-0.1L139.8,103L139.8,103l-0.2-0.1L139.8,103l-0.1-0.1l0,0.1L139.8,103l-0.1-0.1l0,0.1l0,0L139.8,103
		l0-0.2l-0.2,0l0,0.2L139.8,103l0-0.2L139.8,103z M139.5,102.9l-0.2,0.1l0.1,0.2l0.2-0.1L139.5,102.9L139.5,102.9l-0.2,0l-0.1,0.2
		l-0.1,0.3l0.4,0l0-0.2L139.5,102.9c-0.3,0.2-0.5,0.5-0.5,0.8c0,0.1,0,0.2,0,0.3l0.2,0v-0.2h-0.1v0.2l0.2,0l0-0.3
		c0-0.2,0.1-0.4,0.3-0.6L139.5,102.9l-0.2,0.1L139.5,102.9l-0.1-0.2c-0.3,0.3-0.4,0.6-0.4,0.9c0,0.1,0,0.2,0,0.3l0,0.2h0.3h0.3
		l-0.1-0.3l0-0.2c0-0.2,0.1-0.3,0.3-0.4l0.6-0.4L139.5,102.9l-0.1,0.2l0.2,0.1l0,0l-0.2-0.1l0,0.2l0.1,0l0.3,0l-0.2-0.4l-0.1-0.3
		l-0.2,0.2L139.5,102.9z M138.9,103.5l0.2,0.1l0.6-0.6l0.1-0.1l0-0.2l-0.1-0.3l-0.3,0.2c-0.3,0.2-0.6,0.5-0.6,0.9l-0.1,0.7l0.5-0.5
		L138.9,103.5l0.2,0c0-0.2,0.2-0.4,0.5-0.6l-0.1-0.2l-0.2,0l0,0l-0.5,0.5L138.9,103.5l0.2,0L138.9,103.5z M139.5,102.5l-0.1-0.2
		c-0.5,0.3-0.7,0.5-0.8,0.8l0.3,0.2l0.7-0.5l0.1,0l0-0.2l0.1-0.4l-0.4,0.2L139.5,102.5l-0.2,0l0,0.1l-0.6,0.5l0.1,0.2l0.2,0.1
		c0.1-0.2,0.2-0.3,0.6-0.6L139.5,102.5l-0.2,0L139.5,102.5z M137.5,103.7l0.1,0.2c0.2-0.1,0.5-0.2,0.5-0.2l0,0l0-0.1l-0.1,0.1l0,0
		l0-0.1l-0.1,0.1l0.1-0.1h-0.2l0.1,0.1l0.1-0.1h-0.2h0.1l-0.1,0l0,0h0.1l-0.1,0l0,0l-0.1,0.1l0.2,0.3c0.1-0.1,0.2-0.1,0.3-0.1l0,0
		l0,0l0,0l0,0l0,0l0,0l0,0l0,0l0,0l0,0l0,0l0.2-0.1l-0.2-0.1l-0.2,0.2l0.3,0.3c0.2-0.1,0.2-0.1,0.3-0.1l0,0l0,0l0,0l0,0l0,0l0,0l0,0
		l0,0l0,0.2l0.9,0.1l0-0.2h-0.2v0.1h0.2l0-0.2c-1.1-0.1-1.6-0.2-2.3-0.4L137.5,103.7l0.1,0.2L137.5,103.7l-0.1,0.2
		c0.7,0.2,1.3,0.4,2.4,0.5l0.2,0v-0.3v-0.2l-0.9-0.1l0,0.2l0.2,0c0-0.1,0-0.2-0.1-0.3c-0.1-0.1-0.2-0.2-0.4-0.2
		c-0.2,0-0.3,0.1-0.5,0.2l0.1,0.2l0.2,0.1l0.2-0.2l0.1-0.1l0-0.1c0-0.1-0.2-0.3-0.4-0.3c-0.1,0-0.3,0.1-0.5,0.2l0.1,0.2l0.1,0.2
		l0.2-0.2c0-0.1,0.1-0.1,0.1-0.2c0-0.1-0.1-0.2-0.1-0.2l-0.2,0c-0.2,0-0.5,0.1-0.8,0.3l-0.3,0.2l0.4,0.1L137.5,103.7z M138.8,104.5
		l0,0.2c0.5,0,1,0.1,1.5,0.1c0.8,0,1.6,0,2.4-0.1l0.1,0l0.1-0.1c0.1-0.1,0.1-0.1,0.1-0.1l0.1,0l0.2-0.4l0.3-0.4l-1.7,0.2l0,0l-0.2,0
		l0,0.2l1,0l0,0l0.1,0l0.2,0v-0.2v-0.2l-0.4,0l0,0.2l0.1-0.2c-0.3-0.2-0.4-0.4-0.4-0.5l0.1-0.2l-0.1-0.2l0,0.2l0.2,0l0.3,0l-0.1-0.3
		l0-0.1l-0.5,0l0,0.2l0.2-0.1c-0.1-0.1-0.1-0.2-0.1-0.3c0-0.1,0-0.2,0.1-0.3l-0.2-0.1l0,0.2l0.2,0l0.3,0l-0.2-0.3l-0.1-0.1l-0.7,0.1
		l0,0.2l0.2,0l0-0.2l-0.2,0l0,0.2l0.3,0l0.2,0l0-0.3l0-0.2l-0.3,0l0-0.1l0-0.2h-0.3h-0.2l0,0.2l-0.1,0l-0.2,0l0,0.2l0,0.2l0.4,0l0,0
		l0.2,0l0-0.2l-0.3,0l-0.1,0l-0.1,0.2l-0.1,0.2l0.3,0l0-0.2l-0.1-0.2c-0.2,0.1-0.4,0.3-0.5,0.4l0.2,0.1l0.2,0l0.1-0.3l0.1-0.1l0,0
		l0-0.1v0.1l0,0l0-0.1v0.1V102l0,0.1l0,0V102l0,0.1l0.3,0.2v-0.4v-0.2l-0.2,0c-0.2,0-0.4,0-0.6,0.1l0,0.2l0.2,0l0,0h0.1h0.1l0.1-0.2
		l0.1-0.3l-0.4,0l0-0.1l0-0.2l-0.3,0l-0.2,0l0,0.3l-0.1,0l-0.2,0l0,0.3l0,0.2l0.5,0l0-0.2h-0.2v0l-0.1,0l-0.2,0l0,0.2l0,0l0.2,0.1
		l-0.1-0.2c-0.1,0.1-0.3,0.2-0.4,0.4l0.2,0.1l0.2,0.1c0-0.1,0.1-0.2,0.2-0.2l-0.1-0.4l-0.4,0.1l0,0.2l0.2,0l0,0l0.1,0l0.3,0
		l-0.2-0.4l-0.1-0.1l-0.2,0v0v-0.2l-0.3,0l-0.2,0l0,0.2h-0.2H139l0.4,0.4l0.1,0.1l0.4,0l0-0.2l-0.2,0l0,0l-0.1,0l-0.6,0.1l0.4,0.2
		l0,0l-2.3,1.3l0.2,0.2l0.1-0.1l-0.2,0l0,0l0,0.1l1,0.3l0.1-0.2l-0.1,0.2c0.2,0.1,0.3,0.3,0.4,0.4l0.1,0.1l0.1,0L138.8,104.5
		l0.2-0.1c-0.1-0.2-0.3-0.4-0.5-0.5l0,0l-0.9-0.3l-0.1,0.2l0.2,0l0,0l0-0.1l-0.1-0.1l-0.1,0.1l0.1,0.2l2.1-1.2l0.2-0.3l0.1-0.2
		l-0.3-0.2l-0.1,0.2l0,0.2l0.3,0l0.2,0l0-0.4l0-0.2l-0.4,0l0,0l-0.1,0.1v0.2h0.4h0.2l0-0.4l-0.2,0l0,0.2l0.1,0l0-0.2h-0.2v0.2v0.2
		l0.5,0l0-0.2l-0.2,0.1l0,0.1l0.2-0.1l0-0.2l-0.3,0l-0.2,0l0,0.4l0,0.3l0.7-0.1l0-0.2l-0.1-0.2c-0.2,0.1-0.3,0.3-0.4,0.5l0.4,0.2
		c0.1-0.1,0.2-0.2,0.2-0.2l0.1,0l0.1-0.1l0-0.1l0-0.1l-0.2,0l0,0.2l0.3,0l0.2,0v-0.4v-0.2l-0.5,0l0,0.2l0.2,0l0-0.1l-0.2,0l0,0.2
		l0.3,0l0.2,0l0-0.5l-0.2,0l0,0.2l0.1,0l0-0.2l-0.2,0l0,0.3l0,0.2l0.6,0l0-0.2l-0.2-0.1l0,0.1l0.2,0.1v-0.2h-0.3h-0.2l0,0.4l0,0.2
		l0.2,0c0.2,0,0.4,0,0.6-0.1l0-0.2h-0.2v0h0.2l0.1-0.2l-0.2-0.1c-0.2,0-0.3,0.2-0.4,0.3c-0.1,0.1-0.1,0.3-0.2,0.4l0.4,0.2
		c0.1-0.1,0.2-0.3,0.3-0.3l0.7-0.3l-0.8-0.1l0,0.2l0.2,0.1l0-0.1l-0.2-0.1l0,0.2l0.3,0l0.2,0l0-0.4l0-0.2l-0.5,0l0,0.2l0.2,0l0-0.1
		l-0.2,0l0,0.2l0.3,0l0.2,0l0-0.5l-0.2,0v0.2h0.1v-0.2l-0.2,0l0,0.3l0,0.2l0.5,0l0-0.2l-0.2,0l0,0.1l0.2,0l0-0.2l-0.3,0l-0.2,0
		l0,0.4l0,0.2l0.8-0.1l0-0.2l-0.2,0.1l0,0.1l0.2-0.1l0-0.2l-0.2,0l-0.1,0l-0.1,0.1c-0.1,0.2-0.2,0.3-0.2,0.6c0,0.2,0.1,0.4,0.2,0.5
		l0.1,0.1l0.5,0l0-0.2l-0.2,0.1l0,0.1l0.2-0.1l0-0.2l-0.2,0l-0.1,0l0,0c-0.2,0.1-0.2,0.3-0.2,0.5c0,0.3,0.2,0.6,0.6,0.9l0.1,0l0.2,0
		l0-0.2h-0.2v0h0.2l-0.1-0.2l-0.1,0l-0.9,0l-0.2,0l0,0.4l0,0.2l1.6-0.2l0-0.2l-0.2-0.1l-0.2,0.3l0.2,0.1l0-0.2
		c-0.2,0-0.4,0.2-0.4,0.3l0.2,0.1l0-0.2c-0.8,0.1-1.5,0.1-2.3,0.1c-0.5,0-1,0-1.5-0.1L138.8,104.5l0.2-0.1L138.8,104.5z M141,102.8
		l0,0.2l0.7,0l0.2,0l0-0.4l0-0.1l-0.1,0c-0.1,0-0.3-0.1-0.4-0.1c-0.2,0-0.4,0.1-0.5,0.3l-0.1,0.1l0.1,0.2l0,0.1l0.2,0L141,102.8
		l0.2-0.1l0-0.1l-0.2,0.1l0.2,0.1c0,0,0.1-0.1,0.2-0.1c0.1,0,0.2,0,0.3,0.1l0.1-0.2l-0.2,0l0,0.2l0.2,0l0-0.2l-0.7,0L141,102.8
		l0.2-0.1L141,102.8z M141.7,102.8l0.2,0l0-0.2l-0.2,0L141.7,102.8l0.3,0.2l0.1-0.2l0-0.2l-0.4,0L141.7,102.8l0.2,0L141.7,102.8
		l0,0.2l0.4,0l0.1-0.4l-0.4-0.2l-0.3-0.2l0,0.5l0,0.2l0.2,0L141.7,102.8z"/>
	<path class="st19" d="M140.5,103.9c-0.1-0.1-0.2-0.2-0.2-0.3c0-0.1,0.1-0.3,0.3-0.5l-0.3-0.3c-0.2,0.2-0.4,0.5-0.4,0.8
		c0,0.2,0.1,0.4,0.3,0.6L140.5,103.9L140.5,103.9z"/>
	<polygon class="st19" points="140.4,104.2 140.9,101.8 140.5,101.7 139.9,104.1 140.3,104.2 140.9,101.8 140.7,101.8 140.5,101.7 
		140,104.1 140.4,104.2 	"/>
	<polygon class="st19" points="137.5,103.9 140.5,102.1 140.2,104.2 140.7,104.2 141,101.4 137.3,103.5 137.5,103.9 	"/>
	<polygon class="st19" points="138.1,104 140.3,102.3 140.2,102.1 140,102 138.3,103.8 138.6,104.1 140.3,102.2 140.1,101.9 
		137.8,103.7 138.1,104 	"/>
	<polygon class="st19" points="141.7,104.2 141.8,101.7 141.4,101.7 141.2,104.2 141.6,104.2 141.8,101.7 141.6,101.7 141.4,101.7 
		141.3,104.2 141.7,104.2 	"/>
	<polygon class="st19" points="142.2,104.1 141.9,101.7 141.4,101.7 141.6,104.2 142,104.1 141.9,101.7 141.6,101.7 141.4,101.8 
		141.8,104.2 142.2,104.1 	"/>
	<path class="st19" d="M142.3,102.7c-0.1-0.1-0.1-0.2-0.1-0.3c0-0.1,0-0.2,0.2-0.4l-0.3-0.3c-0.2,0.2-0.3,0.4-0.3,0.6
		c0,0.2,0.1,0.4,0.2,0.5L142.3,102.7L142.3,102.7z"/>
	<polyline class="st19" points="142.3,102.9 142.3,103 142.7,102.7 142.6,102.7 	"/>
	<polyline class="st19" points="142.4,102.7 142.4,102.7 142.1,103 142.1,103 	"/>
	<path class="st19" d="M142.5,102.6l-0.2,0l-0.1,0l-0.1,0.1c-0.1,0.2-0.2,0.4-0.2,0.5c0,0.4,0.2,0.6,0.5,0.8l0,0l0.2,0.1l0.2-0.4
		l-0.2-0.1l-0.1,0.2l0.1-0.2c-0.1-0.1-0.3-0.3-0.3-0.5c0-0.1,0-0.2,0.1-0.3l-0.2-0.1l0,0.2l0.2,0L142.5,102.6L142.5,102.6z"/>
	<polyline class="st19" points="141.5,103.7 141.5,103.9 141.9,103.9 141.9,103.6 	"/>
	<polyline class="st19" points="141.5,104 141.5,104.2 141.9,104.2 141.9,103.9 	"/>
	<path class="st19" d="M141.2,102.7c-0.3,0.2-0.4,0.4-0.4,0.7c0,0.3,0.2,0.7,0.5,0.8l0.2-0.4c-0.2-0.1-0.3-0.3-0.3-0.4
		c0-0.1,0.1-0.3,0.2-0.4L141.2,102.7L141.2,102.7z"/>
	<path class="st19" d="M141.1,101.8c-0.3,0.2-0.4,0.5-0.4,0.7c0,0.2,0,0.3,0.1,0.5l0.1,0.1l0.4,0l0-0.4l-0.3,0l0,0.2l0.2-0.1
		c-0.1-0.1-0.1-0.2-0.1-0.3c0-0.1,0.1-0.3,0.2-0.4L141.1,101.8L141.1,101.8z"/>
	<polygon class="st19" points="141,102 141,101.8 140.8,101.8 140.8,102 141.1,102 141.3,102 141.3,101.7 140.9,101.7 140.9,101.8 
		141.1,101.8 141.1,101.6 140.8,101.5 140.6,101.5 140.6,101.9 141,102 	"/>
	<polyline class="st19" points="141.4,101.4 141.5,101.7 141.9,101.6 141.8,101.4 	"/>
	<polyline class="st19" points="140.4,102 140.7,102 140.7,101.5 140.4,101.5 	"/>
	<polyline class="st19" points="139.7,101.6 139.7,101.9 140.2,101.9 140.2,101.6 	"/>
	<polygon class="st19" points="140.3,101.9 139.9,101.9 139.9,102.1 140.1,102.1 140.2,102 139.9,101.9 139.9,102.2 140.3,102.2 
		140.3,101.7 139.9,101.7 139.7,101.7 139.7,102.1 139.7,102.4 140.4,102.3 140.3,101.9 	"/>
	<polyline class="st19" points="139.6,102.2 139.9,102.2 139.9,101.7 139.6,101.7 	"/>
	<path class="st19" d="M139.7,103c0-0.1-0.1-0.2-0.1-0.3c0-0.1,0-0.2,0.1-0.3l-0.3-0.3c-0.2,0.2-0.3,0.4-0.3,0.6
		c0,0.1,0,0.3,0.1,0.4L139.7,103L139.7,103z"/>
	<polyline class="st19" points="139.6,102.4 139.9,102.4 139.8,101.9 139.6,102 	"/>
	<path class="st19" d="M140.2,101.9c-0.2,0.2-0.3,0.4-0.3,0.7c0,0.3,0.2,0.6,0.5,0.6l0.1-0.4c-0.1,0-0.2-0.1-0.2-0.2
		c0-0.1,0.1-0.2,0.2-0.3L140.2,101.9L140.2,101.9z"/>
	<path class="st19" d="M139.3,103.9l0-0.2c0-0.2,0.1-0.3,0.2-0.6l-0.3-0.2c-0.2,0.3-0.3,0.5-0.3,0.8c0,0.1,0,0.2,0.1,0.4
		L139.3,103.9L139.3,103.9z"/>
	<path class="st19" d="M139,103.3c0.1-0.2,0.2-0.3,0.4-0.5l-0.2-0.3c-0.2,0.2-0.4,0.4-0.5,0.6L139,103.3L139,103.3z"/>
	<path class="st19" d="M139.1,103.5c0-0.2,0.1-0.3,0.3-0.5l-0.3-0.3c-0.2,0.2-0.4,0.4-0.4,0.7L139.1,103.5L139.1,103.5z"/>
	<path class="st25" d="M138.8,104.3L138.8,104.3L138.8,104.3L138.8,104.3L138.8,104.3L138.8,104.3L138.8,104.3L138.8,104.3
		L138.8,104.3L138.8,104.3L138.8,104.3L138.8,104.3L138.8,104.3L138.8,104.3L138.8,104.3L138.8,104.3z M138.9,104.3l0-0.1
		L138.9,104.3L138.9,104.3L138.9,104.3z M139,104.3l0-0.1L139,104.3L139,104.3L139,104.3L139,104.3L139,104.3L139,104.3L139,104.3
		L139,104.3L139,104.3L139,104.3L139,104.3L139,104.3L139,104.3L139,104.3z M139.1,104.2L139.1,104.2L139.1,104.2L139.1,104.2
		L139.1,104.2L139.1,104.2L139.1,104.2L139.1,104.2L139.1,104.2L139.1,104.2 M139.1,104.2L139.1,104.2L139.1,104.2L139.1,104.2
		L139.1,104.2L139.1,104.2L139.1,104.2L139.1,104.2L139.1,104.2L139.1,104.2 M139.1,104.3L139.1,104.3L139.1,104.3L139.1,104.3
		L139.1,104.3L139.1,104.3L139.1,104.3L139.1,104.3L139.1,104.3L139.1,104.3L139.1,104.3L139.1,104.3L139.1,104.3L139.1,104.3
		L139.1,104.3L139.1,104.3L139.1,104.3L139.1,104.3L139.1,104.3L139.1,104.3L139.1,104.3L139.1,104.3L139.1,104.3L139.1,104.3
		L139.1,104.3L139.1,104.3L139.1,104.3L139.1,104.3L139.1,104.3L139.1,104.3L139.1,104.3L139.1,104.3L139.1,104.3 M139.2,104.3
		L139.2,104.3L139.2,104.3L139.2,104.3L139.2,104.3L139.2,104.3L139.2,104.3L139.2,104.3L139.2,104.3z M139.2,104.3L139.2,104.3
		L139.2,104.3L139.2,104.3L139.2,104.3L139.2,104.3z"/>
	<path class="st22" d="M138.3,98.8l1.4,0.3l0.6-0.2l0.1-0.1l0.1,0.2c0,0.2,0,0.2,0.1,0.2l0,0.1l0-0.1c0.1,0,0.1-0.1,0-0.2l0.1-0.2
		l0.1,0.1l0.5,0.2l1.4-0.3l-0.3-0.1l0.1-0.1l-0.4,0.1l0.1-0.1l-0.3,0.1l0-0.1l-0.2,0.1l0-0.1l-0.1,0l-0.1-0.1l-0.1-0.1l-0.1-0.1
		l-0.1,0l-0.1,0l-0.1,0l-0.1,0c-0.1,0-0.1,0-0.1,0.1l0,0c0-0.1,0-0.3-0.1-0.3l0.2-0.4l0-0.1l-0.1,0.1l0-0.1l-0.1,0.1l-0.1-0.1
		l-0.1,0.1l-0.1-0.1l-0.1,0.1l-0.1-0.1l0,0.1l0.2,0.4c0,0-0.1,0.2-0.1,0.4l-0.1-0.2l0,0c0-0.1,0-0.1-0.1-0.1l-0.1,0l-0.1,0l-0.1,0.1
		l-0.1,0.1l-0.1,0.1l-0.1,0.1l-0.1,0l0,0.1l-0.2,0l0,0.1l-0.2-0.1l0,0.1l-0.3-0.1l0.1,0.1l-0.3,0l0.2,0.1L138.3,98.8z"/>
	<path class="st19" d="M138.3,98.8l0,0.2l1.5,0.4l0.6-0.2l0,0l0.2-0.2l-0.1-0.1l-0.2,0.1l0.1,0.2l0.2-0.1l-0.2,0l0,0.2l0.1,0.2
		l0.2,0.1l0.1-0.2l-0.2,0.1l0,0.1l0.4,0l0-0.1l-0.2,0l0.1,0.2l0.2-0.1l0-0.2l0-0.2l-0.2,0l0.2,0.1l0.1-0.2l-0.2-0.1l-0.1,0.2
		l0.1,0.1l0,0l0.5,0.2l0.1,0l1.5-0.3l0-0.4l-0.3-0.1l-0.1,0.2l0.1,0.2l0.1-0.1l-0.2-0.4l-0.4,0.1l0,0.2l0.2,0.1l0.1-0.1l0.5-0.5
		l-1,0.3l0.1,0.2l0.2,0.1l0-0.1l0.2-0.4l-0.7,0.2l0.1,0.2l0.2,0l0-0.1l0-0.3l-0.3,0.1l0,0l0,0l-0.1-0.1l-0.1-0.1l0,0l-0.1,0l0,0
		l-0.2,0l0,0l-0.2,0l0,0l-0.1,0.1l0.1,0.2l0.1-0.2l-0.2-0.1l-0.2,0.1c-0.1,0.1-0.1,0.2-0.1,0.3l0.2,0l-0.1-0.2l0,0l0.1,0.2l0.2,0
		c0-0.1,0-0.3-0.1-0.4l-0.2,0.1l0.2,0.1l0.2-0.4l0,0l0-0.2l0-0.5l-0.5,0.4l0.1,0.2l0.2-0.1l0-0.1l-0.1-0.3l-0.3,0.4l0.2,0.1l0.2-0.1
		l-0.1-0.1l-0.2-0.3l-0.2,0.3l0.2,0.1l0.2-0.1l-0.1-0.1l-0.2-0.2l-0.2,0.3l0.2,0.1l0.2-0.1l-0.1-0.1l-0.3-0.4l-0.1,0.6l0,0.1
		l0.3,0.5l0.2-0.1l-0.2-0.1l-0.1,0.2c0,0.1,0,0.2,0,0.3l0.2,0l0.2-0.1l-0.1-0.2l-0.1-0.2l-0.2,0.1l0.1,0.2l0.2,0l-0.1-0.2l-0.2-0.1
		l-0.1,0l0.1,0.2l0-0.2l-0.1,0l0,0l-0.2,0l0,0l-0.1,0.1l-0.1,0.1l0,0l-0.1,0.1l0,0l0,0l-0.1,0l-0.4,0l0.2,0.4l0.2-0.1l0-0.2l-0.2,0
		l-0.4,0l0.2,0.4l0.2-0.1l0.1-0.2l-0.2-0.1l-0.4-0.2l0.1,0.5l0.2,0l0-0.2l-0.3-0.1l-0.6-0.1l0.5,0.6l0.2-0.1l0-0.2l-0.3,0
		L138.3,98.8l0.2,0.1l0.1-0.2l-0.1-0.2l-0.3,0.1l0,0.4L138.3,98.8l0.1,0.2l0.3-0.1l0.6-0.2l-0.7-0.3l-0.1,0.2l0,0.2l0.3,0l0.5,0
		l-0.4-0.5l-0.2,0.1l0,0.2l0.3,0.1l0.3,0.1l-0.1-0.4l-0.2,0l-0.1,0.2l0.2,0.1l0.5,0.2l-0.3-0.6l-0.2,0.1l0,0.2l0.2,0l0.4,0l-0.2-0.4
		l-0.2,0.1l0,0.2l0.1,0l0.1,0l0.2-0.1l0.1-0.1l0.1-0.1l0,0l0.1,0l0.1,0l0.1,0l0.1,0l0.1,0l0,0l0-0.1v0.1l0,0l0-0.1v0.1v-0.1
		l-0.1,0.1l0.1,0.1v-0.1l-0.1,0.1l0.1-0.1l-0.1,0l0,0l0.1-0.1l-0.1,0l0,0l-0.1,0l0,0l0,0l-0.1,0l0,0l0,0.3l0.3-0.1l-0.1-0.2
		l-0.2,0.1l0.1,0.2l0.4-0.1c0-0.1,0-0.2,0-0.2l0,0l0,0l-0.1,0l0.1,0.1l0,0l-0.1,0l0.1,0.1l0.1-0.1l-0.3-0.4l0,0l-0.2,0l-0.2,0.1
		l0.1,0.1l0.2,0.2l0.2-0.3l-0.2-0.1l-0.2,0.1l0.1,0.1l0.2,0.2l0.2-0.3l-0.2-0.1l-0.2,0.1l0.1,0.1l0.2,0.2l0.3-0.3l-0.2-0.1l-0.2,0.1
		l0,0.1l0.1,0.3l0.3-0.3l-0.1-0.2l-0.2,0l0,0.1l-0.2,0.3l-0.1,0.1l0.1,0.1c0,0,0,0.2,0,0.3l0,0.4l0.3-0.3l0.1-0.1l0-0.1l0,0l0,0
		l-0.1,0l0.1,0.1l0,0l-0.1,0l0.1,0.1l-0.1-0.1v0.2l0.1-0.1l-0.1-0.1v0.2v-0.1l-0.1,0.1l0.1,0v-0.1l-0.1,0.1l0.1,0.1l0.2-0.1l0.1,0
		l0.1,0l0.1,0l0.1,0.1l0,0l0.1,0.1l0.1,0.1l0.1,0.1l0.2,0l0-0.2l-0.2,0l0,0.1l-0.1,0.3l0.6-0.2l-0.1-0.2l-0.2-0.1l0,0.1l-0.2,0.4
		l0.7-0.2l-0.1-0.2l-0.2-0.1l-0.1,0.1l-0.4,0.5l1-0.2l0-0.2l-0.1-0.2l-0.1,0.1l-0.3,0.3l0.7,0.2l0.1-0.2l0-0.2l-1.4,0.3l-0.4-0.1
		l-0.1-0.1l-0.2-0.2l-0.2,0.6l0,0.1l0,0.1l0,0.1l0,0l0.1,0l0-0.1l-0.1,0.1l0.1,0l0-0.1l-0.1,0l0,0.2l0.2,0l0.2-0.1l0-0.1l0-0.1
		l-0.1,0l0,0.1l0.1-0.1l0,0l0,0.1l0.1-0.1l-0.1,0l0.1,0l0,0l-0.1,0l0.1,0l0,0l0-0.1l0-0.1l-0.1-0.3l-0.1-0.3l-0.3,0.3l-0.5,0.2
		l-1.4-0.3L138.3,98.8l0.1,0.2L138.3,98.8z"/>
	<path class="st17" d="M135.9,99.3c1,0.1,2.3-0.7,3.8-2.1h1.8c1.4,1.3,2.7,2,3.8,2.1c0.3,5.4-1.1,7.9-4.7,10.1
		C135.1,105.7,135.9,102.3,135.9,99.3 M136.2,99.6c-0.2,3.4,0.3,6.7,4.4,9.3c3.6-2.3,4.6-4.8,4.4-9.2c-1.3-0.3-2.4-1.2-3.6-2.1
		l-1.8,0C138.7,98.5,137.5,99.4,136.2,99.6"/>
</g>
</svg>
